<?xml version="1.0" encoding="UTF-8"?>
<svg width="803.15" height="803.15" version="1.1" viewBox="0 0 212.5 212.5" xmlns="http://www.w3.org/2000/svg">
    <title>Das Eiserne Kreuz als nationales Erkennungszeichen der heutigen Bundeswehr</title>
    <path d="m71 141.5c-0.569 0.0906-1.1448 0.18571-1.727 0.28527-18.539 3.164-43.803 10.767-64.273 18.815v21.7c12.343-3.7253 25.684-8.2354 34.9-9.7002-1.4648 9.2163-5.9748 22.557-9.7002 34.9h21.7c8.0476-20.47 15.651-45.734 18.815-64.273 0.0996-0.58219 0.19462-1.158 0.28525-1.727z"/>
    <path d="m70.9 207.5c6.9532-18.432 17.352-53.742 21.3-87.2-33.458 3.9484-68.768 14.347-87.2 21.3v-70.701c18.432 6.9531 53.742 17.352 87.2 21.3-3.9484-33.458-14.347-68.768-21.3-87.2h70.701c-6.9532 18.432-17.352 53.742-21.3 87.2 33.458-3.9484 68.768-14.347 87.2-21.3v70.701c-18.432-6.9531-53.742-17.352-87.2-21.3 3.9484 33.458 14.347 68.768 21.3 87.2z"/>
    <path d="m71 71c-0.569-0.0906-1.1448-0.18571-1.727-0.28527-18.539-3.164-43.803-10.767-64.273-18.815v-21.7c12.343 3.7253 25.684 8.2354 34.9 9.7002-1.4648-9.2163-5.9748-22.557-9.7002-34.9h21.7c8.0476 20.47 15.651 45.734 18.815 64.273 0.0996 0.58219 0.19462 1.158 0.28525 1.727z"/>
    <path d="m141.5 141.5c0.569 0.0906 1.1448 0.18571 1.727 0.28527 18.539 3.164 43.803 10.767 64.273 18.815v21.7c-12.343-3.7253-25.684-8.2354-34.9-9.7002 1.4648 9.2163 5.9748 22.557 9.7002 34.9h-21.7c-8.0476-20.47-15.651-45.734-18.815-64.273-0.0996-0.58219-0.19462-1.158-0.28526-1.727z"/>
    <path d="m141.5 71c0.569-0.0906 1.1448-0.18571 1.727-0.28527 18.539-3.164 43.803-10.767 64.273-18.815v-21.7c-12.343 3.7253-25.684 8.2354-34.9 9.7002 1.4648-9.2163 5.9749-22.557 9.7002-34.9h-21.7c-8.0476 20.47-15.651 45.734-18.815 64.273-0.0996 0.58219-0.19463 1.158-0.28526 1.727z"/>
</svg>
