<?xml version="1.0" encoding="utf-8"?>
<!-- Generator: Adobe Illustrator 16.0.0, SVG Export Plug-In . SVG Version: 6.00 Build 0)  -->
<!DOCTYPE svg PUBLIC "-//W3C//DTD SVG 1.1//EN" "http://www.w3.org/Graphics/SVG/1.1/DTD/svg11.dtd">
<svg version="1.1"
	 id="svg6155" xmlns:dc="http://purl.org/dc/elements/1.1/" xmlns:cc="http://creativecommons.org/ns#" xmlns:rdf="http://www.w3.org/1999/02/22-rdf-syntax-ns#" xmlns:svg="http://www.w3.org/2000/svg" xmlns:sodipodi="http://sodipodi.sourceforge.net/DTD/sodipodi-0.dtd" xmlns:inkscape="http://www.inkscape.org/namespaces/inkscape" sodipodi:version="0.32" inkscape:version="0.48.5 r10040" sodipodi:docname="Luftwaffe_eagle_(spaced).svg" inkscape:output_extension="org.inkscape.output.svg.inkscape"
	 xmlns="http://www.w3.org/2000/svg" xmlns:xlink="http://www.w3.org/1999/xlink" x="0px" y="0px" width="631.967px"
	 height="215.61px" viewBox="0 70.905 631.967 215.61" enable-background="new 0 70.905 631.967 215.61" xml:space="preserve">
<filter  width="1" height="1" inkscape:menu="Color" y="0" x="0" inkscape:label="Invert" id="filter3011" color-interpolation-filters="sRGB" inkscape:menu-tooltip="Invert colors">
	<feColorMatrix  type="saturate" result="fbSourceGraphic" values="1" id="feColorMatrix3013"></feColorMatrix>
	<feColorMatrix  in="fbSourceGraphic" values="-1 0 0 0 1 0 -1 0 0 1 0 0 -1 0 1 0 0 0 1 0 " id="feColorMatrix3015">
		</feColorMatrix>
</filter>
<defs>
	
	
		<inkscape:perspective  id="perspective6163" inkscape:vp_z="744.09448 : 526.18109 : 1" inkscape:vp_y="0 : 1000 : 0" inkscape:vp_x="0 : 526.18109 : 1" sodipodi:type="inkscape:persp3d" inkscape:persp3d-origin="372.04724 : 350.78739 : 1">
		</inkscape:perspective>
</defs>
<sodipodi:namedview  fit-margin-left="0" fit-margin-top="0" showgrid="false" inkscape:cy="298.52669" inkscape:cx="136.94605" inkscape:zoom="1.0647781" borderopacity="1.0" bordercolor="#666666" pagecolor="#ffffff" id="base" fit-margin-bottom="0" fit-margin-right="0" inkscape:window-maximized="0" inkscape:window-y="0" inkscape:window-x="304" inkscape:window-height="1005" inkscape:window-width="1280" inkscape:current-layer="g6145" inkscape:document-units="px" inkscape:pageshadow="2" inkscape:pageopacity="0.0">
	</sodipodi:namedview>
<g id="g6149" transform="matrix(1.1057168,0,0,1.1057168,-1401.0873,-307.67277)" filter="url(#filter3011)">
	<path id="path4758_1_" inkscape:connector-curvature="0" fill="#CACACA" d="M1270.039,345.797
		c-0.146,0.004-0.293,0.021-0.411,0.029c-0.626,0.042-1.061,0.291-1.467,0.675c-1.624,1.536-1.447,2.41,1.379,7.981
		c2.925,5.765,16.937,20.059,19.657,20.068c0.586,0.002,1.408,1.176,1.848,2.582c1.407,4.493,6.325,9.76,12.087,12.967
		c3.079,1.714,6.378,4.21,7.305,5.486c3.792,5.218,10.885,10.659,16.283,12.557c3.153,1.109,7.878,3.614,10.474,5.545
		c2.595,1.932,7.108,4.329,10.063,5.311c2.955,0.982,7.704,3.034,10.474,4.577c2.203,1.228,3.473,2.006,4.166,2.963
		c0.017,0.024,0.042,0.035,0.059,0.059l11.764,2.904l6.953,1.32c0.302-1.854,0.578-2.481,1.232-2.435
		c0.341,0.024,0.754,0.191,1.349,0.411c0.767,0.284,1.351,1.537,1.584,2.846l10.298,1.995l2.435,0.44
		c0.321-0.133,0.631-0.206,0.968-0.205c1.401,0.004,2.139,0.27,2.172,0.763l12.234,2.171l15.168,0.792
		c1.712-0.556,3.526-0.886,5.281-0.969c2.458-0.115,4.712,0.296,6.19,1.291c2.694,1.813,14.414,4.141,16.694,3.316
		c0.828-0.3,3.696,0.699,6.366,2.229l4.871,2.758l-7.277,2.494c-4,1.375-7.579,3.255-7.951,4.166
		c-0.372,0.911-2.477,2.353-4.694,3.227c-2.964,1.168-4.068,2.314-4.078,4.283c-0.021,4.175,2.844,6.961,7.305,7.187
		c11.882,0.603,26.392,1.822,27.08,2.23c0.433,0.257,6.384,1.025,13.232,1.76c7.501,0.805,15.242,2.465,19.481,4.108
		c3.869,1.499,7.599,2.372,8.244,1.995c0.708-0.414,0.768-0.054,0.177,0.851c-0.719,1.098-0.472,1.305,1.026,0.763
		c1.38-0.5,1.782-0.357,1.203,0.528c-0.578,0.884-0.206,1.145,1.174,0.645c1.379-0.499,1.781-0.356,1.203,0.528
		c-0.579,0.884-0.206,1.057,1.174,0.557c1.125-0.407,1.809-0.317,1.467,0.206c-0.566,0.864,6.533,3.756,9.388,3.814
		c2.297,0.047,2.754,2.567,1.055,5.663c-1.943,3.542-2.252,7.278-0.675,8.215c0.585,0.347,1.351-0.095,1.731-1.027
		c0.987-2.417,2.44-2.107,3.784,0.851c1.321,2.905,6.942,4.467,5.81,1.614c-0.402-1.012,0.282-2.201,1.73-2.934
		c1.395-0.706,2.798-2.921,3.257-5.193c0.947-4.688,2.477-5.039,4.371-1.027c1.051,2.226,1,4.09-0.087,7.892
		c-0.783,2.74-1.057,5.784-0.675,6.748c0.383,0.964,0.125,1.733-0.528,1.73c-1.165-0.004-3.251,5.312-2.817,7.159
		c0.121,0.515-0.34,0.667-0.968,0.293c-0.629-0.374-1.577,0.035-2.113,0.939c-0.536,0.904-1.487,1.665-2.142,1.702
		c-3.19,0.18-9.913,3.608-10.709,5.427c-2.248,5.135-1.833,7.867,1.672,10.356c1.906,1.354,4.214,2.462,5.134,2.465
		c0.556,0.002,1.536,0.382,2.583,0.939l0.88-1.38l1.145-2.817l2.846-4.078l2.113-4.577l1.789-1.379l1.819,0.645l6.102,4.343
		l6.161,5.046l1.584,0.675c-0.571-1.085-0.629-1.949-0.411-2.963c0.519-2.415-0.164-3.715-3.433-6.395
		c-2.239-1.837-5.002-3.844-6.161-4.489c-2.017-1.123-2.042-1.436,0.029-7.599c1.191-3.539,2.518-6.261,2.934-6.014
		c0.416,0.246,2.245,3.314,4.078,6.806c1.833,3.493,4.745,7.339,6.454,8.509c4.514,3.088,18.107,6.155,21.681,4.899
		c1.589-0.558,3.885-0.826,5.193-0.586c4.118,0.753,5.696,0.698,17.896-0.617c13.723-1.478,15.603-1.922,19.599-4.313
		c1.611-0.964,5.041-1.901,7.598-2.113c5.13-0.424,11.546-4.122,11.559-6.659c0-0.894-0.928-1.669-2.113-1.673
		c-1.184-0.004-5.183-1.686-8.86-3.814c-3.677-2.128-7.126-3.568-7.598-3.169c-0.473,0.399-0.491,0.185-0.059-0.528
		c0.801-1.321-2.385-3.279-4.547-2.786c-0.655,0.148-0.78-0.125-0.322-0.558c0.974-0.921-6.158-6.908-7.687-6.454
		c-0.572,0.17-0.709-0.201-0.322-0.792c0.672-1.026-6.391-6.678-7.628-6.102c-0.328,0.153-0.619-0.17-0.616-0.734
		c0-0.563-2.637-3.268-5.896-5.984c-3.26-2.718-5.142-3.887-4.167-2.641c1.645,2.1,1.602,2.125-0.322,0.675
		c-1.141-0.86-2.058-2.28-2.053-3.139c0.01-1.438-1.483-2.07-3.932-1.673c-0.54,0.088-0.655-0.297-0.293-0.85
		c0.363-0.554-2.549-3.409-6.425-6.396l-7.041-5.427l3.11-2.318c2.129-1.584,4.552-2.238,7.657-2.054
		c2.506,0.149,7.165-0.762,10.298-1.995s7.95-2.799,10.709-3.461c2.758-0.663,5.319-1.63,5.691-2.201
		c0.374-0.57,3.078-1.404,6.044-1.819c2.966-0.415,6.046-1.293,6.836-1.995c0.79-0.702,2.504-1.379,3.814-1.467
		c8.418-0.57,16.022-1.775,15.579-2.464c-0.616-0.961,1.647-1.219,13.907-1.438c6.499-0.117,8.565-0.095,10.151,1.144l15.725-0.44
		l14.142,0.206c-0.554-0.58-0.911-0.965-0.822-1.027c0.056-0.038,0.222-0.11,0.558-0.117c1.006-0.024,3.155,0.117,5.486,0.323
		l5.662,0.498v1.467c2.956-0.303,10.674-1.062,12.527-1.056c1.636,0.005,6.255-1.842,9.095-2.992
		c0.543-1.648,2.492-2.548,8.714-4.635c3.237-1.086,7.255-3.251,8.978-4.812c1.722-1.561,4.472-2.867,6.073-2.876
		c4.487-0.025,12.351-3.814,18.044-8.714c2.834-2.439,8.186-6.29,11.941-8.537c5.284-3.164,7.563-5.399,10.033-10.034
		c1.756-3.293,4.967-7.415,7.13-9.124c2.162-1.709,5.167-5.547,6.659-8.509c1.494-2.96,4.781-7.49,7.277-10.092
		c4.379-4.568,8.227-11.405,8.244-14.64c0-0.86-1.087-1.58-2.435-1.584c-1.55-0.005-2.147,0.432-1.614,1.261
		c0.501,0.781,0.292,1.009-0.47,0.558c-0.704-0.419-5.485,1.016-10.62,3.11c-5.135,2.093-12.265,4.738-15.872,5.897
		c-3.607,1.159-6.83,2.354-7.159,2.67c-0.329,0.316-1.942,0.615-3.579,0.675c-1.637,0.06-8.091,1.184-14.317,2.464
		c-11.808,2.427-17.224,3.098-32.126,4.078c-4.912,0.323-15.376,1.063-23.236,1.644c-14.233,1.051-18.734,1.306-20.155,0.557
		c-4.171,0.261-8.89,0.44-8.89,0.44l-23.793,0.117c-0.72,0.659-4.696,0.956-12.234,0.939c-14.411-0.034-23.363,1.023-38.521,4.489
		c-14.2,3.247-19.77,5.91-50.697,24.028c-11.538,6.759-28.795,19.996-27.901,21.387c0.427,0.665,0.25,0.844-0.382,0.47
		c-0.631-0.375-2.706,0.322-4.635,1.525c-4.988,3.109-16.926,3.055-21.124-0.117c-1.676-1.267-3.716-2.22-4.547-2.053
		c-0.832,0.167-1.587-0.244-1.614-0.968c-0.057-1.599-13.338-13.058-25.495-21.975c-10.89-7.988-26.736-16.476-29.133-15.609
		c-0.972,0.352-1.734,0.155-1.731-0.381c0.01-1.481-8.068-4.223-18.19-6.249c-4.987-0.998-9.356-1.818-9.711-1.819
		c-0.253,0-0.483-0.277-0.586-0.675l-21.711-2.933l-4.049-0.499c-0.682,0.311-1.941,0.275-4.313,0.029
		c-2.781-0.288-11.509-0.798-19.364-1.145c-34.952-1.539-62.519-8.438-90.832-22.679c-9.324-4.69-13.289-6.612-15.403-6.923
		C1270.327,345.804,1270.184,345.793,1270.039,345.797L1270.039,345.797z"/>
	<g id="g6145_1_">
		<path id="path4760_1_" inkscape:connector-curvature="0" fill="#141414" d="M1271.037,345.709
			c-2.726,0.035-3.002,3.033-0.675,8.038c2.427,5.221,15.953,19.69,19.392,20.743c1.189,0.364,2.431,1.883,2.817,3.374
			c0.989,3.836,6.317,9.585,12.205,13.173c2.765,1.685,7.504,5.681,10.533,8.919c5.084,5.436,13.434,10.403,17.515,10.415
			c0.938,0.003,2.395,0.791,3.257,1.789c2.073,2.401,13.054,8.429,15.402,8.449c1.017,0.009,4.283,1.479,7.247,3.286
			c2.656,1.617,4.043,2.45,4.812,3.814l3.726,0.792c0.208-0.131,0.519-0.145,0.851-0.059c0.931,0.241,3.813,0.714,6.424,0.998
			c2.612,0.284,5.012,0.741,5.34,1.056c0.024,0.022,0.037,0.205,0.059,0.264l3.755-2.024l0.059-0.059l1.026-0.557l3.638,4.548
			l3.345,0.322c2.242,0.182,4.393,0.588,4.753,0.939c0.035,0.035,0.01,0.124,0,0.235c2.469,0.02,4.844,0.05,5.486-0.029
			c1.009-0.125,4.616,0.278,7.393,0.586c2.906-0.807,5.455-0.811,7.012,0.323c1.199,0.873,3.377,1.648,4.812,1.672
			c2.239,0.038,3.192,0.517,3.022,1.584c1.583,0.447,1.823,0.544,3.197,0.939c1.78-0.985,3.434-1.28,6.015-1.379
			c2.959-0.115,7.452,0.647,10.034,1.73c2.572,1.079,7.591,2.254,11.12,2.612c3.528,0.358,8.152,1.486,10.327,2.552l3.989,1.966
			l-6.249,1.819c-3.429,1.018-7.488,3.135-9.036,4.694c-1.549,1.559-3.549,2.878-4.401,2.876c-0.853-0.004-2.431,1.229-3.491,2.757
			c-1.783,2.569-1.754,3.045,0.176,6.19c1.496,2.44,2.943,3.321,5.134,3.257c3.009-0.088,18.929,1.436,39.93,3.755
			c14.772,1.631,19.412,2.981,35.147,10.297c13.569,6.31,13.677,6.356,12.176,9.154c-1.625,3.028-2.083,8.234-0.821,9.447
			c0.424,0.408,1.534-0.123,2.464-1.203c1.252-1.453,1.859-1.623,2.318-0.557c1.94,4.512,8.325,6.839,7.188,2.611
			c-0.337-1.249-0.136-2.29,0.411-2.288c1.986,0.006,4.71-3.595,4.723-6.219c0.02-3.77,2.21-4.668,3.491-1.408
			c0.7,1.778,0.487,5.239-0.586,10.004c-2.672,11.867-3.423,12.973-11.472,17.075c-5.469,2.788-7.773,4.734-8.978,7.511
			c-1.572,3.627-1.522,3.859,2.523,7.746c2.447,2.352,4.913,3.741,5.926,3.374c0.119-0.043,0.259-0.025,0.44,0l1.027-1.614
			l1.144-2.817l2.847-4.078l2.112-4.577l1.79-1.38l1.818,0.646l6.103,4.343l6.161,5.046l3.931,1.702
			c-0.715-1.216-0.898-2.18-0.763-3.14c0.298-2.101-0.737-3.988-3.52-6.748c-2.138-2.12-4.583-3.87-5.398-3.873
			c-2.65-0.008-2.769-1.894-0.587-7.921c2.338-6.453,2.883-6.374,6.749,1.115c3.41,6.606,6.565,8.993,14.757,11.266
			c5.735,1.591,10.635,2.092,18.513,1.848c19.308-0.598,34.312-2.787,37.465-5.486c1.112-0.951,3.837-1.678,5.956-1.672
			c4.314,0.013,7.752-1.439,11.735-4.87c3.139-2.704,3.429-4.188,0.851-4.196c-2.38-0.007-10.712-4.134-15.989-7.892
			c-5.374-3.827-15.862-12.208-36.027-28.986c-8.942-7.44-16.558-13.226-16.987-12.82c-0.428,0.405,0.414,1.538,1.878,2.523
			c3.917,2.635,20.305,16.538,20.302,17.221c0,0.322-1.977,0.309-4.43-0.058c-4.424-0.664-4.492-0.702-1.379,0.909
			c1.727,0.894,3.724,3.262,4.43,5.222c1.236,3.43,1.205,3.55-1.643,3.022c-3.437-0.638-3.622-0.034-1.232,4.401
			c2.137,3.966,0.998,4.465-4.782,2.142c-5.593-2.249-5.751-2.203-5.016,0.527c0.336,1.25,0.262,2.261-0.206,2.259
			c-1.715-0.004-4.708-2.953-5.251-5.163c-0.531-2.161-0.58-2.123-1.409,0.293c-1.02,2.98-2.096,2.836-16.517-2.171
			c-9.054-3.144-12.079-3.469-9.476-0.968c0.674,0.647,1.022,2.445,0.704,3.989l-0.616,2.817l-2.786-3.667
			c-1.561-2.034-2.65-4.261-2.377-4.929s-0.984-1.328-2.817-1.467c-3.023-0.229-3.443,0.16-4.195,4.283
			c-0.631,3.453-1.323,4.582-3.051,4.577c-1.483-0.004-2.34,0.782-2.348,2.259c-0.018,3.423-2.163,2.725-2.611-0.851
			c-0.218-1.743,0.578-4.502,1.818-6.249c1.223-1.721,2.024-3.78,1.76-4.548c-0.264-0.767-1.752,0.765-3.344,3.375
			c-1.593,2.609-3.856,4.958-5.047,5.251c-1.324,0.325-1.992,0.019-1.673-0.792c0.287-0.73,1.063-1.251,1.731-1.115
			c0.669,0.136,0.944-0.652,0.646-1.761c-0.394-1.465,1.178-2.955,5.633-5.574c6.839-4.019,9.522-4.346,16.928-1.966
			c2.802,0.9,8.311,2.425,12.234,3.404c6.992,1.743,7.179,1.714,9.125-0.705c1.778-2.21,2.315-2.307,5.339-1.026l3.345,1.408
			l-3.139-2.582c-1.751-1.44-4.825-5.707-6.836-9.477c-3.778-7.081-13.667-18.74-15.872-18.748c-0.689-0.002,0.47,1.691,2.552,3.755
			c2.082,2.065,3.787,4.155,3.785,4.665c0,0.511-3.427,0.736-7.599,0.47l-7.599-0.499l4.313,4.899
			c2.333,2.685,4.394,4.87,4.606,4.871c0.818,0.002-2.173-4.48-3.521-5.281c-0.825-0.49,1.271-1.408,5.017-2.2
			c7.338-1.552,7.686-1.327,12.058,7.276c1.354,2.665,2.944,5.115,3.521,5.457c1.6,0.95,1.215,3.878-0.733,5.721
			c-1.674,1.582-7.77,1.112-7.775-0.587c0-0.4-1.388-2.23-3.081-4.107l-3.081-3.462l1.995,3.256
			c1.093,1.773,1.718,3.494,1.379,3.814c-1.103,1.043-13.192-3.3-15.989-5.75c-2.521-2.207-2.543-2.459-0.557-3.198
			c1.729-0.645,1.565-0.838-0.881-0.91c-1.887-0.056-4.738-1.791-7.569-4.577l-4.548-4.43l4.548-0.47
			c4.134-0.393,4.009-0.429-1.409-0.616c-4.375-0.151-6.668-0.852-8.215-2.494c-1.179-1.251-2.687-2.277-3.404-2.259
			c-0.716,0.018,0.179,1.105,1.995,2.406c2.774,1.988,3.043,2.646,1.76,4.108c-1.307,1.489-1.187,1.595,0.91,0.968
			c1.733-0.518,3.546,0.259,6.22,2.552c2.078,1.783,3.788,3.823,3.784,4.548c0,0.724,0.703,1.347,1.584,1.35
			c0.881,0.003,2.547,1.037,3.725,2.288c2.081,2.21,2.135,2.266-0.382,2.259c-1.425-0.004-4.685,1.291-7.217,2.875
			c-5.673,3.55-6.93,3.283-24.38-4.812l-13.026-6.044l5.868-0.411c5.216-0.396,5.066-0.483-1.291-0.44
			c-5.788,0.039-19.326-1.236-23.471-2.23c-0.49-0.117-3.458-0.293-6.631-0.381c-3.581-0.099-6.721-0.934-8.244-2.172
			c-6.13-4.982-7.38-5.857-9.623-7.012c-4.01-2.063-4.549-1.377-0.762,0.968c1.957,1.214,4.912,3.291,6.542,4.636l2.934,2.464
			l-2.934-0.646c-1.635-0.361-6.16-0.684-10.034-0.704c-3.874-0.02-6.678-0.386-6.249-0.792c0.429-0.405,2.34-0.676,4.313-0.616
			c1.973,0.059,3.605-0.386,3.609-0.969c0.01-1.614-8.466-1.229-12.029,0.528c-2.934,1.448-3.304,1.311-4.518-1.261
			c-1.938-4.104-1.584-4.888,2.435-6.484c2.559-1.016,5.448-1.125,9.712-0.47c4.736,0.729,6.53,0.528,8.039-0.763
			c1.07-0.915,3.076-1.647,4.459-1.643c1.383,0.004,2.937-0.578,3.403-1.29c0.601-0.919-0.166-1.08-2.611-0.558
			c-1.9,0.406-6.719,1.016-10.65,1.38l-7.13,0.646l2.377-2.259c3.065-2.935,20.035-6.356,23.266-4.694
			c3.443,1.771,4.558,1.27,1.232-0.557c-2.639-1.45-2.763-1.642-0.646-1.673c1.31-0.019,8.049-1.751,14.904-3.873
			s12.962-3.567,13.583-3.198s0.784,0.129,0.382-0.498c-0.768-1.198,7.32-3.183,17.662-4.372c5.589-0.643,5.764-0.569,3.52,1.115
			c-1.951,1.465-1.994,1.814-0.44,1.849c2.31,0.051,9.625-4.839,20.654-13.789c8.882-7.208,16.253-11.966,38.022-24.497
			c17.08-9.833,21.979-11.844,35.295-14.611c19.891-4.135,26.932-4.746,52.134-4.372c13.703,0.203,28.886,0.065,33.798-0.322
			l8.949-0.734l-7.746,1.584c-4.261,0.852-18.182,2.083-30.953,2.728c-28.471,1.438-38.032,2.564-51.841,6.279
			c-14.308,3.849-23.608,7.959-34.825,15.285c-12.678,8.281-12.832,8.321-11.999,6.279c0.382-0.938,0.208-2.434-0.382-3.316
			c-0.918-1.372-1.241-1.35-2.2,0.059c-0.616,0.904-0.852,2.077-0.528,2.582c1.315,2.048-1.289,5.627-6.484,9.007
			c-3.996,2.6-5.22,3.075-4.636,1.643c0.46-1.126,0.084-2.711-0.88-3.638c-2.292-2.203-3.067-2.012-3.08,0.675
			c-0.01,1.249,0.492,2.257,1.085,2.259c2.599,0.008-0.453,4.232-4.753,6.572c-3.843,2.091-4.701,2.179-4.694,0.763
			c0.01-1.934-3.01-2.323-4.166-0.557c-0.408,0.623-0.233,1.113,0.44,1.115c3.236,0.01-0.78,3.278-8.274,6.718
			c-4.58,2.104-8.329,4.232-8.332,4.753c-0.01,1.48,1.489,1.145,5.868-1.38c2.575-1.484,5.189-2.091,7.159-1.701
			c1.705,0.337,2.43,0.342,1.614,0c-2.204-0.922-1.803-2.4,0.85-3.051c3.007-0.74,9.812,2.808,10.181,5.281
			c0.218,1.466-0.692,1.932-4.049,2.024c-2.398,0.067-5.098-0.014-6.045-0.147c-1.397-0.195-1.46,0.081-0.264,1.467
			c2.12,2.456-0.107,3.355-6.131,2.494c-4.752-0.679-4.875-0.594-2.142,0.939c1.73,0.971,4.599,1.382,7.217,1.056
			c3.662-0.457,5.101,0.008,8.744,3.081c4.847,4.089,5.251,5.352,2.2,6.102c-1.569,0.386-1.428,0.511,0.586,0.616
			c1.649,0.086,2.695-0.478,2.7-1.526c0-0.936,0.681-1.733,1.496-1.731c0.814,0.003-1.259-1.658-4.665-3.696
			c-3.406-2.038-6.206-4.325-6.219-5.105c-0.033-1.844,2.885-1.856,4.488,0c0.707,0.819,4.553,1.62,8.889,1.819
			c6.256,0.287,9.333,1.205,16.899,5.017c8.472,4.268,9.067,4.82,7.042,6.219c-1.218,0.843-3.427,1.531-4.9,1.526
			c-1.473-0.005-3.025,0.462-3.432,1.085c-1.301,1.985,4.653,1.255,8.714-1.085c2.446-1.41,6.015-2.238,9.535-2.23
			c3.405,0.008,7.043-0.828,9.271-2.113c2.025-1.167,5.897-2.512,8.567-2.934c2.67-0.421,5.831-1.42,7.041-2.288
			c1.211-0.867,3.586-1.614,5.222-1.643c1.637-0.028,5.237-1.092,8.098-2.318c2.86-1.226,7.377-2.179,9.946-2.171
			c2.568,0.008,6.626-0.866,9.065-1.878c3.033-1.259,7.304-1.727,13.408-1.555c4.07,0.115,6.296,0.187,8.039,0.704l3.227-0.675
			l-1.174-1.115l8.362,0.763c2.046,0.186,4.281,0.186,6.366,0.147h0.792c1.239-0.04,2.354-0.123,3.345-0.235
			c0.834-0.094,1.568-0.152,2.113-0.293c3.194-0.832,4.405-0.819,5.662,0.322l3.169,0.557l-0.587-0.557l5.34,0.382
			c3.236,0.255,4.48,0.394,4.958,1.438l1.849-0.117c0.616-0.753,2.134-1.213,4.782-1.584c2.785-0.391,7.067-1.559,9.535-2.552
			c1.85-0.745,3.663-1.206,4.635-1.203c0.135,0.001,0.227-0.024,0.323,0h0.058l5.927-0.91c0.969-0.497,2.183-0.927,3.872-1.467
			c3.312-1.056,7.627-3.223,9.623-4.811c1.996-1.589,5.851-3.174,8.567-3.58c5.508-0.822,12.26-4.505,16.781-9.153
			c1.645-1.692,5.476-4.292,8.508-5.75c6.116-2.942,11.185-8.036,14.113-14.171c1.062-2.224,3.843-5.625,6.219-7.598
			c2.378-1.974,5.448-6.043,6.807-9.008c1.358-2.965,4.196-6.935,6.279-8.801c6.118-5.482,10.392-15.053,7.481-16.782
			c-0.5-0.297-4.8,1.155-9.536,3.227c-28.168,12.323-59.246,17.776-114.39,20.126c-7.759,0.33-10.988,0.198-11.912-0.47
			c-0.78,0.079-1.018,0.066-1.584,0.117c-0.706,1.058-2.475,1.911-3.961,1.907c-1.466-0.004-2.235-0.326-2.757-1.496
			c-0.832,0.031-1.416,0.018-2.435,0.059c-0.043,0.867-0.597,1.05-1.731,1.232c-0.84,0.134-2.23-0.287-3.55-0.998
			c-0.735,0.032-0.911,0.031-1.554,0.059l1.232,1.408l-3.609-0.616c-0.602-0.103-1.441-0.291-2.377-0.557
			c-0.027,0.001-0.498,0-0.498,0l-4.313-0.088c-0.162,0.47-5.561,0.79-12.557,0.763c-17.833-0.071-35.824,2.645-50.491,7.628
			c-11.594,3.938-44.864,23.701-61.905,36.761c-12.137,9.302-12.225,9.365-19.686,9.622c-6.094,0.211-8.152-0.268-11.236-2.318
			c-2.084-1.385-7.553-5.648-12.117-9.477c-30.688-25.746-45.973-33.514-79.009-40.106l-10.239-1.994l0.264-0.675l-2.318-0.117
			c-0.707,0.895-1.386,0.823-1.995-0.147l-3.256-0.235c-0.379,0.605-1.062,0.518-1.937-0.147l-5.662-0.44
			c-0.188,0.715-1.208,0.701-3.11,0.411c-1.799-0.276-9.949-0.745-18.131-1.085c-37.953-1.58-66.552-8.669-95.116-23.588
			c-6.129-3.202-12.388-6.123-13.877-6.484C1271.9,345.797,1271.426,345.704,1271.037,345.709L1271.037,345.709z M1272.973,348.848
			c1.43,0.021,5,1.794,14.171,6.249c25.659,12.467,42.422,17.354,72.818,21.3c16.502,2.143,22.631,3.687,22.62,5.721
			c0,0.639,0.908,1.148,2.053,1.174c1.146,0.026,3.444,0.837,5.076,1.789c2.817,1.643,2.583,1.716-4.195,1.144
			c-3.927-0.331-15.149-1.161-24.967-1.848c-9.818-0.687-24.855-1.785-33.387-2.377c-18.13-1.258-29.379-4.435-38.815-11.09
			c-7.119-5.021-16.391-16.601-16.372-20.478C1271.985,349.439,1272.114,348.835,1272.973,348.848L1272.973,348.848z
			 M1834.689,356.33c0.149-0.011,0.284-0.011,0.411,0c1.68,0.136,1.197,2.157-1.145,6.484c-9.169,16.942-36.205,23.53-87.751,21.387
			c-10.474-0.435-22.761-0.893-27.344-1.055l-8.361-0.323l8.185-1.203c4.48-0.682,7.766-1.612,7.335-2.024
			c-1.379-1.319,3.166-1.957,21.447-3.11c9.824-0.619,21.064-1.687,24.996-2.318c19.807-3.179,44.085-10.03,57.21-16.137
			C1831.979,356.958,1833.639,356.398,1834.689,356.33L1834.689,356.33z M1294.801,366.158c-0.197,0.036-0.079,0.28,0.322,0.675
			c2.013,1.977,16.554,7.052,25.114,8.772c9.79,1.968,27.185,3.518,20.654,1.849c-2.288-0.585-7.628-1.4-11.882-1.818
			c-6.45-0.635-23.125-5.239-32.654-9.037C1295.549,366.277,1294.997,366.122,1294.801,366.158L1294.801,366.158z M1816.323,367.625
			c-0.569-0.002-1.618,0.371-2.787,1.085c-1.544,0.943-1.47,1.094,0.264,1.115c1.107,0.013,2.35-0.492,2.757-1.115
			C1817.026,367.994,1816.892,367.627,1816.323,367.625L1816.323,367.625z M1823.013,377.189c-0.002,0.144-0.795,1.819-1.819,3.755
			c-3.702,6.993-13.956,12.806-26.141,14.875c-6.212,1.055-48.979,0.346-72.906-1.203c-10.562-0.684-13.86-1.294-15.813-2.992
			c-2.241-1.948-2.324-2.321-0.616-3.932c1.632-1.539,7.232-1.735,42.6-1.643c44.177,0.116,52.507-0.645,67.361-6.308
			C1819.732,378.196,1823.013,377.046,1823.013,377.189L1823.013,377.189z M1296.179,377.805c0.375-0.039,0.962,0.188,1.907,0.675
			c6.515,3.352,15.539,4.78,41.045,6.396c33.396,2.115,55.3,3.984,57.68,4.958c1.009,0.412-0.823,1.062-4.195,1.466l-5.897,0.705
			l5.516,0.205c3.071,0.108,5.934,0.65,6.308,1.232c0.412,0.643-5.099,0.837-13.965,0.47c-8.03-0.333-17.75-0.16-21.682,0.411
			c-3.931,0.571-15.723,0.957-26.199,0.851c-17.173-0.175-19.671-0.479-25.026-2.846c-6.267-2.771-16.032-11.066-16.018-13.613
			C1295.651,378.131,1295.805,377.843,1296.179,377.805L1296.179,377.805z M1347.463,378.715c-0.315,0.007-0.518,0.077-0.645,0.117
			c-0.86,0.27,5.523,1.233,14.141,2.172c8.617,0.938,15.635,1.388,15.637,1.026c0-0.753-21.256-3.094-27.93-3.256
			C1348.19,378.762,1347.779,378.708,1347.463,378.715L1347.463,378.715z M1393.583,378.891c5.855,0.028,13.531,0.442,18.16,1.174
			c30.624,4.841,43.669,8.354,58.208,15.814c9.064,4.649,16.386,9.986,32.948,23.793c7.701,6.42,14.573,11.675,15.197,11.677
			s1.089,0.478,1.085,1.056c-0.01,1.046-2.476,1.96-5.984,2.2c-1.011,0.07-9.793-7.069-19.54-15.843
			c-15.184-13.668-19.38-16.733-29.045-21.476c-13.206-6.48-27.432-11.108-37.466-12.147c-16.728-1.731-37.828-4.423-40.781-5.221
			C1383.695,379.196,1387.729,378.863,1393.583,378.891L1393.583,378.891z M1740.893,379.947c-0.755-0.003-1.479,0.035-2.053,0.176
			c-1.147,0.282-0.238,0.55,2.053,0.557c2.292,0.007,3.198-0.239,2.054-0.528c-0.286-0.072-0.62-0.176-0.968-0.205
			C1741.631,379.918,1741.271,379.948,1740.893,379.947L1740.893,379.947z M1707.213,383.233c0.512,0.015-0.01,0.452-1.409,1.526
			c-2.581,1.979-9.632,2.353-10.767,0.586c-0.429-0.669,0.908-1.171,3.227-1.174c2.167-0.002,5.256-0.242,6.895-0.586
			C1706.238,383.358,1706.906,383.224,1707.213,383.233z M1392.205,383.497c0.548-0.024,1.297,0.025,2.142,0.059
			c5.067,0.207,14.409,1.446,14.405,2.2c-0.01,1.353-8.033,1.179-13.525-0.293c-2.513-0.674-4.343-1.453-4.048-1.731
			C1391.296,383.619,1391.657,383.521,1392.205,383.497L1392.205,383.497z M1675.88,385.609c1.491-0.027,3.061-0.017,4.635,0
			c10.533,0.113,11.307,0.282,10.269,2.113c-1.995,3.514-13.912,4.274-21.506,1.35c-4.228-1.629-4.625-2.084-2.611-2.787
			C1667.642,385.944,1671.406,385.689,1675.88,385.609z M1423.04,386.401c0.684,0.008,1.411,0.074,2.112,0.147
			c4.166,0.431,4.846,0.807,3.726,2.083c-1.151,1.312-0.76,1.373,2.435,0.323c2.906-0.956,4.529-0.915,6.953,0.205l3.139,1.467
			l-4.752,1.409c-5.873,1.749-12.508,1.919-16.547,0.44c-3.271-1.198-4.008-3.628-1.584-5.398
			C1419.137,386.626,1420.984,386.379,1423.04,386.401L1423.04,386.401z M1654.022,386.577c0.254-0.013,0.517-0.006,0.791,0
			c4.769,0.098,12.472,3.109,18.102,7.452c0.307,0.237-0.237,0.943-1.203,1.554c-3.172,2.009-19.02,0.543-27.021-2.493
			c-4.084-1.55-7.396-3.167-7.393-3.638c0-0.792,1.417-1.022,9.535-1.38c1.637-0.072,3.973-0.543,5.222-1.085
			C1652.6,386.752,1653.258,386.619,1654.022,386.577L1654.022,386.577z M1805.145,386.901c-0.982,0.031-2.883,0.494-4.195,1.026
			c-2.385,0.968-2.38,0.987,0,1.056c1.309,0.039,3.21-0.454,4.195-1.056c1.195-0.729,1.504-0.97,0.91-1.026
			C1805.856,386.881,1805.541,386.887,1805.145,386.901z M1410.542,388.044h4.693l-4.693,1.584c-4.317,1.43-4.46,1.537-0.998,1.085
			c3.827-0.498,6.433,1.038,3.609,2.113c-2.583,0.982-9.071,0.736-9.77-0.352c-0.367-0.571,0-1.271,0.821-1.584
			c0.834-0.317,0.502-0.635-0.821-0.733c-2.38-0.177-2.385-0.206,0-1.174C1404.695,388.451,1407.922,388.032,1410.542,388.044
			L1410.542,388.044z M1793.674,388.632c-0.32,0.013-0.681,0.044-1.085,0.117c-1.619,0.291-2.962,0.759-2.964,0.998
			c0,0.878,4.667,0.381,5.281-0.557c0.196-0.3-0.047-0.501-0.586-0.557C1794.139,388.612,1793.913,388.621,1793.674,388.632z
			 M1653.846,388.778c-0.413-0.018-0.86,0.072-1.291,0.234c-0.951,0.359-0.682,0.616,0.705,0.675
			c1.254,0.054,1.948-0.238,1.554-0.616C1654.618,388.882,1654.259,388.795,1653.846,388.778z M1732.943,388.925
			c-0.438,0.002-0.884,0.025-1.349,0.029c-7.832,0.079-7.116,0.624,1.789,1.35c3.414,0.278,5.945,0.062,5.604-0.47
			c-0.256-0.398-2.229-0.762-4.752-0.88C1733.813,388.934,1733.381,388.923,1732.943,388.925z M1694.391,388.954
			c0.246-0.008,0.498-0.012,0.763,0c2.121,0.096,4.789,0.851,6.748,2.113l3.785,2.406l-6.484-0.587l-6.572-0.557l5.926,1.438
			c3.737,0.89,5.291,1.682,4.166,2.142c-3.058,1.248-24.75,0.277-26.257-1.174c-1.067-1.027,0.542-1.554,7.012-2.142
			c5.221-0.474,8.335-1.205,8.185-1.995C1691.468,389.562,1692.671,389.012,1694.391,388.954z M1424.301,389.54
			c-0.183,0.032-0.38,0.139-0.646,0.235c-2.066,0.748-2.416,1.55-0.704,1.555c0.615,0.002,1.387-0.5,1.789-1.115
			c0.21-0.321,0.2-0.536,0-0.616C1424.641,389.559,1424.484,389.509,1424.301,389.54L1424.301,389.54z M1334.994,389.629
			c-7.546-0.002-13.144,0.121-12.381,0.411c1.193,0.453,12.581,0.824,25.349,0.821c12.767-0.002,22.168-0.178,20.859-0.382
			c-2.584-0.4-14.626-0.714-25.788-0.821C1340.242,389.631,1337.509,389.63,1334.994,389.629L1334.994,389.629z M1657.25,389.893
			c-0.155,0.004-0.29,0.03-0.382,0.117c-0.369,0.348,0.295,0.979,1.466,1.408c1.694,0.621,1.807,0.45,0.646-0.675
			C1658.377,390.16,1657.712,389.881,1657.25,389.893z M1375.247,390.186c-0.647-0.01-1.328,0.034-1.907,0.176
			c-1.16,0.284-0.497,0.587,1.467,0.616c1.964,0.029,2.858-0.215,2.053-0.528C1376.458,390.294,1375.894,390.196,1375.247,390.186z
			 M1381.232,390.215c-0.413-0.018-0.919,0.072-1.349,0.235c-0.952,0.359-0.683,0.616,0.704,0.675
			c1.255,0.053,2.007-0.238,1.614-0.616C1382.003,390.319,1381.645,390.233,1381.232,390.215z M1764.511,390.215
			c-2.805-0.009-5.609,0.044-7.833,0.147c-4.448,0.206-1.118,0.383,7.393,0.411c8.511,0.028,12.103-0.118,8.038-0.352
			c-1.016-0.058-2.227-0.17-3.521-0.206C1767.295,390.18,1765.913,390.22,1764.511,390.215L1764.511,390.215z M1782.407,390.274
			c-0.413-0.018-0.919,0.072-1.349,0.234c-0.951,0.359-0.624,0.616,0.763,0.675c1.255,0.054,1.948-0.238,1.555-0.616
			C1783.179,390.379,1782.821,390.291,1782.407,390.274L1782.407,390.274z M1630.785,391.036c5.061,0.012,18.625,5.281,19.07,8.274
			c0.283,1.899-0.411,2.049-7.716,1.379c-4.4-0.403-11.624-1.82-16.078-3.168c-8.405-2.544-8.826-4.419-0.998-4.43
			c2.129-0.004,3.87-0.52,3.873-1.145C1628.937,391.293,1629.618,391.034,1630.785,391.036L1630.785,391.036z M1446.07,391.888
			c0.261-0.012,0.509-0.007,0.734,0c1.801,0.058,2.475,0.738,1.672,1.965c-0.59,0.902,0.021,1.1,1.995,0.676
			c1.572-0.339,3.886-0.234,5.192,0.263c2.228,0.848,2.222,0.946-0.586,1.644c-2.71,0.673-13.122,2.445-16.078,2.728
			c-0.655,0.063-2.478-0.203-4.078-0.616c-2.694-0.695-2.766-0.82-0.616-1.614c2.058-0.76,1.992-0.891-0.646-1.026
			c-1.93-0.099-0.335-0.941,4.578-2.406C1441.552,392.512,1444.242,391.971,1446.07,391.888L1446.07,391.888z M1632.399,393.237
			c-0.413-0.018-0.86,0.072-1.29,0.235c-0.952,0.359-0.683,0.645,0.704,0.704c1.254,0.053,1.948-0.238,1.555-0.616
			C1633.171,393.371,1632.812,393.255,1632.399,393.237L1632.399,393.237z M1808.694,393.766c0.174-0.031,0.309-0.005,0.411,0.029
			c0.409,0.137,0.269,0.804-0.088,2.083c-0.835,2.983-7.957,9.765-12.675,12.087c-10.364,5.102-21.577,4.819-61.582-1.526
			c-17.991-2.854-36.116-5.554-40.37-6.014l-7.775-0.822l8.362-0.88c4.586-0.487,11.764-0.675,16.018-0.382l7.804,0.557
			l-6.572-1.232c-10.598-2.008-4.515-2.457,14.757-1.056c44.701,3.249,70.338,2.7,79.097-1.731
			C1807.332,394.249,1808.175,393.857,1808.694,393.766L1808.694,393.766z M1418.814,394.792c4.412,0.06,5.289,0.339,3.521,1.056
			c-3.466,1.407-13.573,1.38-11.266-0.029C1412.055,395.218,1415.541,394.748,1418.814,394.792L1418.814,394.792z M1441.904,394.939
			c-0.413-0.018-0.86,0.013-1.29,0.176c-0.952,0.359-0.683,0.675,0.704,0.733c1.254,0.053,1.948-0.238,1.554-0.616
			C1442.676,395.044,1442.317,394.956,1441.904,394.939z M1640.174,395.526c-0.25-0.002-0.489,0.079-0.704,0.147
			c-0.893,0.281-0.346,0.738,1.261,1.145c1.977,0.499,2.434,0.374,1.555-0.47C1641.771,395.851,1640.925,395.533,1640.174,395.526z
			 M1390.268,395.878c1.281-0.013,2.403,0.012,3.374,0.029c3.884,0.065,5.385,0.32,5.076,0.792c-0.563,0.86,0.45,1.261,3.139,1.173
			c2.196-0.072,5.043,0.439,6.308,1.145c1.927,1.074,1.285,1.306-3.755,1.32c-5.76,0.015-34.067,3.882-52.926,7.217
			c-8.573,1.516-18.204,1.235-23.236-0.646c-3.187-1.191-12.415-7.742-12.411-8.802c0-0.464,7.339-0.916,16.342-0.939
			c9.003-0.023,27.877-0.377,41.895-0.851C1381.14,396.08,1386.427,395.915,1390.268,395.878L1390.268,395.878z M1614.943,396.435
			c3.123,0.009,14.153,3.888,16.812,5.897c6.007,4.54,0.715,5.571-13.261,2.64c-4.458-0.934-9.657-2.126-11.618-2.67l-3.609-0.997
			l5.281-2.435C1611.459,397.53,1614.348,396.434,1614.943,396.435z M1645.25,396.582c-0.569-0.002-0.726,0.395-0.264,1.115
			c0.402,0.625,1.651,1.121,2.758,1.115c1.735-0.01,1.739-0.162,0.205-1.115C1646.787,396.975,1645.818,396.584,1645.25,396.582z
			 M1395.49,397.051c-0.413-0.018-0.919,0.043-1.35,0.206c-0.952,0.359-0.683,0.675,0.704,0.733
			c1.255,0.053,2.007-0.238,1.614-0.616C1396.261,397.185,1395.904,397.069,1395.49,397.051z M1675.292,397.169
			c4.453,0.23,12.257,3.571,11.618,5.369c-1.407,3.962-17.517,3.751-26.492-0.382l-5.926-2.757l5.75-0.293
			c3.17-0.184,8.337,0.504,11.618,1.554c3.266,1.046,6.298,1.573,6.689,1.203c0.391-0.37-1-0.975-3.081-1.379
			c-4.897-0.949-5.655-2.3-1.849-3.198C1674.083,397.176,1674.656,397.136,1675.292,397.169z M1423.861,397.521
			c0.529,0.001,1.028,0.026,1.437,0.058c0.546,0.043,0.958,0.164,1.203,0.264c2.516,1.025-5.481,2.145-10.679,1.496
			c-3.819-0.476-3.632-0.626,2.376-1.408C1420.225,397.668,1422.272,397.517,1423.861,397.521z M1387.246,398.137
			c-0.756-0.002-1.539,0.094-2.113,0.235c-1.147,0.282-0.179,0.492,2.113,0.499c2.291,0.007,3.197-0.18,2.053-0.47
			C1388.728,398.257,1388.002,398.139,1387.246,398.137z M1613.212,398.225c-0.406,0.064-0.556,0.298-0.352,0.616
			c0.635,0.99,4.103,1.511,4.107,0.616c0-0.239-1.068-0.725-2.377-1.056c-0.327-0.082-0.629-0.156-0.88-0.176
			C1613.522,398.211,1613.347,398.204,1613.212,398.225L1613.212,398.225z M1459.771,398.254c5.806-0.005,5.472,1.761-0.528,2.699
			c-1.965,0.307-0.816,0.395,2.583,0.235c7.844-0.368,10.677,1.068,5.075,2.582c-4.738,1.282-16.671,1.569-19.569,0.499
			c-1.578-0.583-1.652-0.881-0.381-1.643c1.126-0.675,0.696-1.025-1.409-1.115C1440.582,401.297,1453.85,398.261,1459.771,398.254z
			 M1725.285,399.164c-0.756-0.002-1.48,0.094-2.054,0.235c-1.147,0.282-0.238,0.492,2.054,0.499
			c2.291,0.006,3.256-0.181,2.112-0.47C1726.826,399.283,1726.041,399.166,1725.285,399.164z M1375.217,399.339
			c-3.467-0.017-16.135,1.637-23.706,3.169l-4.195,0.851h4.195c2.292,0.001,6.327-0.409,8.948-0.88
			c2.621-0.472,7.331-1.188,10.503-1.614c3.172-0.427,5.434-1.063,5.076-1.409c-0.039-0.037-0.097-0.095-0.235-0.117
			C1375.667,399.318,1375.465,399.34,1375.217,399.339L1375.217,399.339z M1734.996,400.367c-0.911-0.003-1.183,0.314-0.763,0.968
			c0.402,0.625,2.458,1.112,4.547,1.056c3.628-0.097,3.63-0.15,0.792-1.027C1737.439,400.705,1735.907,400.369,1734.996,400.367z
			 M1621.25,400.396c-0.279,0.048-0.321,0.253-0.088,0.616c0.693,1.08,2.959,1.593,2.963,0.675c0-0.246-0.863-0.74-1.878-1.115
			c-0.264-0.098-0.458-0.149-0.645-0.177C1621.462,400.375,1621.343,400.38,1621.25,400.396L1621.25,400.396z M1430.667,400.542
			c0.677-0.005,1.334-0.039,1.995,0c1.982,0.118,3.861,0.482,5.163,0.998c2.453,0.971,2.434,0.994-2.992,2.699
			c-2.779,0.874-9.895,0.628-12.527-0.411c-2.208-0.871-2.093-0.98,1.026-2.142C1425.262,400.969,1427.957,400.565,1430.667,400.542
			z M1413.152,401.658c0.582-0.009,1.1-0.012,1.554,0c3.026,0.08,3.356,0.71,4.166,2.464c1.25,2.704,1.084,2.879-3.609,3.55
			c-5.451,0.78-19.4,3.765-40.017,8.596c-15.968,3.741-22.71,3.581-30.424-0.763c-6.59-3.712-7.473-5.118-3.198-5.105
			c1.861,0.006,14.343-1.736,27.754-3.844c13.412-2.106,29.771-4.164,36.321-4.548
			C1409.033,401.815,1411.404,401.686,1413.152,401.658L1413.152,401.658z M1434.862,401.658c-0.982,0.031-2.883,0.495-4.195,1.026
			c-2.385,0.968-2.38,0.987,0,1.056c1.309,0.039,3.21-0.425,4.195-1.026c1.195-0.73,1.475-1,0.881-1.056
			C1435.544,401.638,1435.26,401.645,1434.862,401.658z M1452.671,401.775c-0.54-0.003-1.057,0.078-1.467,0.234
			c-0.82,0.313-0.17,0.553,1.467,0.557c1.636,0.005,2.313-0.21,1.496-0.527C1453.759,401.88,1453.21,401.776,1452.671,401.775z
			 M1637.768,402.244c0.171-0.003,0.345,0.011,0.557,0.029c1.019,0.09,2.563,0.424,4.636,0.998c2.622,0.726,4.872,0.719,6.748-0.088
			c4.138-1.781,10.826-0.135,15.168,3.726l3.844,3.374l-3.58-0.733c-1.963-0.414-5.375-1.509-7.599-2.377
			c-2.224-0.868-4.279-1.368-4.547-1.115c-0.268,0.253,2.107,1.35,5.251,2.464s6.188,2.529,6.807,3.051
			c1.608,1.357-5.244,1.115-12.674-0.411c-7.586-1.558-14.656-4.847-15.609-7.247
			C1636.329,402.806,1636.568,402.263,1637.768,402.244L1637.768,402.244z M1683.507,402.479c-0.647-0.01-1.357,0.034-1.937,0.176
			c-1.16,0.284-0.497,0.587,1.467,0.616s2.888-0.245,2.083-0.557C1684.719,402.557,1684.154,402.489,1683.507,402.479
			L1683.507,402.479z M1693.658,402.597c0.31-0.004,0.672,0.004,1.055,0.029c5.374,0.338,17.913,2.263,38.904,5.78
			c20.451,3.427,31.518,4.728,41.279,4.841l13.32,0.176l-2.583,2.612c-5.878,5.952-15.477,8.253-27.901,6.66
			c-4.037-0.518-15.796-3.241-26.112-6.074c-10.315-2.832-24.813-6.3-32.243-7.657c-8.397-1.534-12.939-2.764-11.97-3.345
			c0.858-0.514,2.621-0.953,3.931-0.968c2.009-0.023,2.147-0.271,0.646-1.291c-0.677-0.46-0.427-0.697,0.851-0.733
			C1693.076,402.619,1693.347,402.599,1693.658,402.597L1693.658,402.597z M1790.856,402.684c-0.693-0.002-1.317,0.462-1.32,1.086
			c0,0.624,0.298,1.172,0.587,1.173s0.824-0.521,1.232-1.144C1791.763,403.177,1791.55,402.687,1790.856,402.684z M1743.739,402.772
			l4.753,0.939c2.616,0.525,6.079,0.913,7.716,0.881c2.711-0.055,2.692-0.11-0.557-0.91c-1.962-0.482-5.454-0.872-7.746-0.881
			L1743.739,402.772L1743.739,402.772z M1602.709,403.565c0.203-0.006,0.404,0.019,0.615,0.029c1.02,0.048,2.132,0.276,3.668,0.675
			c5.705,1.484,11.498,5.46,10.385,7.159c-1.015,1.549-15.504,0.479-19.833-1.467c-4.197-1.887-4.073-2.571,0.675-4.987
			C1600.009,404.062,1601.284,403.609,1602.709,403.565z M1414.56,403.946c-0.54-0.002-1.057,0.079-1.467,0.235
			c-0.82,0.312-0.17,0.552,1.467,0.557c1.636,0.004,2.313-0.24,1.496-0.557C1415.648,404.022,1415.1,403.948,1414.56,403.946z
			 M1698.939,404.797c-0.647-0.01-1.357,0.034-1.936,0.177c-1.161,0.284-0.497,0.586,1.466,0.616
			c1.964,0.029,2.946-0.244,2.142-0.557C1700.209,404.875,1699.586,404.806,1698.939,404.797L1698.939,404.797z M1472.855,404.856
			c1.034-0.001,1.758,0.193,2.143,0.498c0.808,0.645,1.182,1.59,0.821,2.142c-0.362,0.553,0.345,1.053,1.614,1.056
			c1.267,0.004,2.925,0.692,3.696,1.584c1.15,1.332,0.811,1.698-1.936,2.083c-6.655,0.932-11.971,0.801-15.755-0.47
			c-2.816-0.946-3.403-1.584-2.229-2.288c1.108-0.664,0.467-1.014-1.995-1.115c-2.342-0.096-0.525-0.84,5.34-2.171
			C1468.442,405.293,1471.133,404.857,1472.855,404.856L1472.855,404.856z M1408.077,405.09c-1.31,0.015-3.789,0.444-5.428,0.939
			l-2.963,0.851l2.963,0.087c1.637,0.024,4.087-0.377,5.398-0.909c1.789-0.726,2.213-0.934,1.32-0.968
			C1409.069,405.079,1408.672,405.084,1408.077,405.09L1408.077,405.09z M1599.716,405.589c-2.381,0.056-2.405,0.074-0.029,1.056
			c1.307,0.541,3.214,1.019,4.196,1.056c1.587,0.06,1.582-0.073,0-1.056C1602.903,406.038,1601.026,405.559,1599.716,405.589
			L1599.716,405.589z M1438.148,405.765c0.544-0.012,1.13,0.009,1.76,0.03c7.666,0.258,13.995,1.649,13.173,2.904
			c-0.825,1.26-17.598,0.744-18.982-0.586C1432.706,406.773,1434.34,405.855,1438.148,405.765L1438.148,405.765z M1704.601,405.912
			c-1.39,0.055,2.53,1.296,8.744,2.786c12.029,2.888,13.919,3.229,12.849,2.201C1725.144,409.889,1707.433,405.799,1704.601,405.912
			z M1429.493,407.232c0.96,0.004,1.386,0.707,1.027,1.584c-0.442,1.084,0.759,1.796,3.902,2.406l4.489,0.881l-5.927,1.379
			c-3.277,0.768-10.794,2.468-16.693,3.755c-5.9,1.289-15.802,4.102-22.033,6.249c-13.381,4.612-20.337,5.018-28.635,1.584
			c-3.225-1.335-5.899-2.735-5.897-3.14c0-0.405,3.126-1.354,6.895-2.083c3.769-0.73,13.834-2.894,22.355-4.783
			C1406.625,411.155,1426.967,407.225,1429.493,407.232z M1396.282,407.262c-0.392,0.03-0.72,0.117-1.027,0.235
			c-0.82,0.312-0.17,0.61,1.467,0.616c1.637,0.005,2.313-0.298,1.496-0.616c-0.204-0.079-0.45-0.136-0.704-0.177
			C1397.135,407.26,1396.674,407.232,1396.282,407.262L1396.282,407.262z M1442.989,407.379c-0.647-0.011-1.357,0.122-1.937,0.264
			c-1.16,0.284-0.467,0.528,1.497,0.557c1.964,0.029,2.916-0.245,2.113-0.557C1444.259,407.486,1443.637,407.388,1442.989,407.379
			L1442.989,407.379z M1634.365,407.848c1.978,0.028,5.158,1.121,8.156,2.963c3.672,2.258,4.089,2.784,1.789,2.288
			c-1.635-0.352-4.321-0.975-5.955-1.32c-1.636-0.344-0.61,0.367,2.288,1.555c3.443,1.413,4.669,2.373,3.55,2.816
			c-1.679,0.664-13.002,0.072-18.982-1.027c-1.986-0.365-3.508-1.719-4.372-3.931c-1.576-4.035-0.849-4.193,7.276-1.525
			c3.094,1.016,5.905,1.495,6.308,1.115c0.403-0.381,0.118-0.672-0.646-0.675c-0.763-0.002-1.352-0.462-1.349-1.085
			C1632.428,408.239,1633.178,407.831,1634.365,407.848z M1606.698,407.936c-0.517-0.018,0.474,0.394,2.964,1.496
			c4.559,2.02,5.878,2.201,4.253,0.675c-0.619-0.582-2.732-1.338-4.694-1.731C1607.889,408.11,1607.009,407.947,1606.698,407.936
			L1606.698,407.936z M1669.659,407.966c0.061-0.013,0.145-0.002,0.235,0c0.43,0.009,1.184,0.209,2.376,0.499
			c1.961,0.477,7.546,1.586,12.411,2.493c4.864,0.907,13.66,3.209,19.48,5.135c5.82,1.925,10.773,3.323,11.061,3.051
			c0.703-0.665-15.494-6.166-24.116-8.185c-9.256-2.166-3.354-2.229,8.185-0.087c12.989,2.41,18.922,3.836,32.448,7.775
			c6.537,1.903,16.477,4.367,22.004,5.456l10.004,1.937l-3.227,1.995c-11.279,6.988-21.349,6.65-40.135-1.467
			c-15.717-6.792-32.451-12.26-44.771-14.611c-2.081-0.397-4.481-1.521-5.34-2.523
			C1669.514,408.545,1669.234,408.06,1669.659,407.966L1669.659,407.966z M1682.304,408.112c0.413,0.018,0.771,0.133,0.968,0.323
			c0.394,0.378-0.271,0.639-1.525,0.586c-1.387-0.058-1.656-0.315-0.704-0.675C1681.473,408.185,1681.891,408.095,1682.304,408.112
			L1682.304,408.112z M1391.118,408.347c-1.434-0.049-2.937,0.404-3.345,1.027c-0.877,1.339,0.326,1.332,3.609,0
			C1393.683,408.441,1393.633,408.432,1391.118,408.347z M1468.162,408.64c-0.755-0.002-1.569,0.035-2.142,0.176
			c-1.147,0.283-0.15,0.551,2.142,0.558c2.291,0.006,3.197-0.269,2.053-0.558c-0.286-0.072-0.619-0.147-0.968-0.176
			S1468.539,408.641,1468.162,408.64z M1590.973,409.755c0.21-0.029,0.439-0.021,0.675,0c0.945,0.086,2.151,0.536,4.049,1.467
			c6.144,3.014,7.123,4.91,2.024,3.932c-2.967-0.569-3.574-0.441-2.259,0.44c0.979,0.655,2.886,1.234,4.195,1.291
			c2.38,0.104,2.356,0.147-0.029,1.115c-3.424,1.389-8.535,1.292-13.818-0.235c-3.627-1.048-4.337-1.649-3.286-2.846
			c0.886-1.009,2.969-1.327,6.249-0.939c4.457,0.528,4.39,0.151-0.293-1.291c-1.301-0.401-1.167-0.812,0.587-2.024
			C1589.795,410.161,1590.343,409.842,1590.973,409.755L1590.973,409.755z M1425.269,410.782c-0.54-0.002-1.057,0.079-1.467,0.235
			c-0.82,0.312-0.17,0.552,1.467,0.557c1.637,0.005,2.313-0.24,1.496-0.557C1426.357,410.858,1425.808,410.784,1425.269,410.782z
			 M1455.194,411.164c1.333,0.012,2.408,0.176,2.963,0.382c1.828,0.675,1.815,0.815-0.264,1.584
			c-1.696,0.627-1.094,0.87,2.201,0.939c2.455,0.051,4.433,0.542,4.43,1.115c-0.011,2.181-5.377,2.878-12.058,1.554
			c-3.912-0.775-3.932-0.788-1.027-1.643c2.421-0.712,2.16-0.853-1.467-0.616c-6.43,0.42-5.699-2.187,0.851-3.022
			C1452.289,411.27,1453.861,411.151,1455.194,411.164L1455.194,411.164z M1378.738,411.663c-1.768,0.019-5.432,0.581-10.62,1.584
			c-5.485,1.061-6.56,1.526-3.609,1.526c2.292-0.001,6.542-0.439,9.417-0.968c2.877-0.53,5.491-1.256,5.839-1.584
			c0.287-0.272,0.146-0.488-0.381-0.557C1379.208,411.639,1379.004,411.659,1378.738,411.663L1378.738,411.663z M1732.297,411.692
			c-0.413-0.018-0.86,0.042-1.291,0.205c-0.951,0.359-0.682,0.675,0.705,0.734c1.254,0.053,1.948-0.238,1.554-0.616
			C1733.068,411.825,1732.71,411.709,1732.297,411.692z M1419.283,411.926c-1.636-0.004-4.027,0.436-5.339,0.969
			c-2.175,0.882-2.127,0.96,0.586,0.968c1.636,0.005,4.027-0.436,5.34-0.968c1.631-0.662,2.025-0.899,0.968-0.969
			C1420.486,411.903,1419.962,411.928,1419.283,411.926L1419.283,411.926z M1649.68,412.806
			c4.843-0.329,53.948,21.281,53.982,23.911c0.018,1.229-12.961,0.987-17.691-0.322c-4.713-1.304-36.849-18.469-36.908-19.716
			c-0.083-1.794,3.534-0.626,14.346,4.577c13.453,6.473,13.934,6.7,12.382,5.193c-1.438-1.395-18.833-10.05-23.617-11.736
			c-1.888-0.665-3.166-1.46-2.817-1.789C1649.418,412.866,1649.523,412.817,1649.68,412.806z M1735.964,412.895
			c-0.911-0.004-0.927,0.342,0.587,0.968c1.306,0.541,3.443,0.953,4.752,0.939c1.914-0.021,1.802-0.201-0.586-0.939
			C1738.685,413.235,1736.876,412.897,1735.964,412.895z M1671.155,413.423c0.118-0.02,0.361,0.03,0.646,0.058
			c3.983,0.394,22.334,5.1,30.776,8.01c5.933,2.045,10.968,4.094,25.759,10.562c2.741,1.198,5.922,2.226,7.071,2.229
			c4.117,0.012-0.347,2.35-6.249,3.286c-7.192,1.141-14.873,0.39-21.886-2.259c-2.94-1.111-8.782-3.987-13.026-6.308
			c-4.244-2.322-12.054-6.115-17.281-8.45c-16.876-7.538-16.137-7.051-10.385-6.484c2.781,0.274,4.851,0.049,4.518-0.47
			C1671.053,413.531,1671.039,413.442,1671.155,413.423L1671.155,413.423z M1482.978,413.628c0.481-0.004,0.907,0.002,1.291,0.029
			c2.559,0.18,2.892,1.009,0.323,2.377c-2.82,1.501-2.803,1.546,0.763,1.291c5.093-0.366,5.551,1.874,0.557,2.699
			c-6.458,1.067-7.404,1.082-12.205-0.206c-2.469-0.662-4.17-1.699-3.785-2.288c0.386-0.589-0.173-1.111-1.232-1.115
			c-1.063-0.003-1.582-0.564-1.145-1.232c0.436-0.666,1.399-0.931,2.172-0.646c0.771,0.285,4.291,0.099,7.745-0.411
			C1479.679,413.8,1481.535,413.643,1482.978,413.628L1482.978,413.628z M1411.568,414.038l-4.782,0.675
			c-4.997,0.658-10.127,2.647-6.572,2.552c0.982-0.026,3.949-0.779,6.572-1.643L1411.568,414.038L1411.568,414.038z
			 M1440.907,414.127c0.674,0.011,1.207-0.034,1.554,0c1.043,0.1,0.611,0.48-1.056,1.672c-1.264,0.905-4.062,1.992-6.249,2.377
			c-2.188,0.384-4.377,1.2-4.782,1.819c-0.465,0.711,0.352,0.779,2.142,0.234c10.948-3.331,12.386-3.544,16.283-2.259l3.99,1.291
			l-8.772,2.612c-4.802,1.411-12.913,4.11-18.044,6.014c-15.554,5.773-22.005,6.548-30.718,3.639
			c-2.86-0.956-6.031-2.043-7.012-2.406c-3.245-1.205,10.582-5.957,30.571-10.562
			C1429.456,416.105,1439.374,414.102,1440.907,414.127L1440.907,414.127z M1611.686,414.537c0.362-0.01,0.71-0.011,1.085,0
			c5,0.14,10.916,2.078,13.554,5.134c1.294,1.5,1.097,1.914-1.291,2.816c-4.351,1.645-11.194,1.354-16.458-0.675
			c-5.255-2.024-5.671-2.814-2.876-5.456C1606.952,415.173,1609.148,414.605,1611.686,414.537L1611.686,414.537z M1746.555,415.124
			c-0.413-0.017-0.831,0.072-1.261,0.235c-0.951,0.359-0.683,0.616,0.704,0.675c1.255,0.053,1.919-0.238,1.525-0.616
			C1747.327,415.228,1746.969,415.142,1746.555,415.124z M1609.163,415.74c-1.31,0.011,1.351,1.314,5.926,2.846
			c7.996,2.677,11.055,3.375,10.005,2.377C1623.921,419.849,1611.33,415.721,1609.163,415.74z M1677.639,416.004
			c-1.032-0.004-0.571,0.671,1.145,1.614c1.632,0.896,3.77,1.669,4.752,1.672c1.032,0.004,0.572-0.729-1.144-1.672
			C1680.76,416.721,1678.621,416.007,1677.639,416.004z M1752.042,416.239c-0.783,0.049-0.542,0.373,0.557,1.055
			c0.979,0.609,3.375,1.045,5.34,0.998c3.5-0.083,3.498-0.098,0.587-0.998c-1.634-0.504-4.03-0.941-5.339-0.997
			C1752.696,416.276,1752.303,416.223,1752.042,416.239z M1579.531,418.029c0.179,0,0.371,0.012,0.557,0.029
			c1.49,0.143,3.191,0.883,5.251,2.23l3.52,2.259l-4.752-0.675c-3.525-0.533-4.282-0.426-2.963,0.469
			c0.979,0.664,3.117,1.255,4.752,1.32c2.918,0.117,2.923,0.184-0.586,1.702c-3.787,1.637-12.866,1.961-16.4,0.616
			c-1.793-0.682-1.507-1.086,1.818-2.934c2.149-1.193,4.617-2.854,5.486-3.667C1577.191,418.466,1578.276,418.031,1579.531,418.029z
			 M1643.988,418.117c4.093,0.021,38.084,18.834,35.675,19.745c-3.224,1.218-9.158,0.677-15.373-1.409
			c-3.535-1.185-10.254-4.254-14.963-6.836c-4.708-2.581-11.68-6.083-15.461-7.775c-6.317-2.826-6.584-3.131-3.52-3.52
			c2.037-0.259,6.389,0.955,11.178,3.11c4.312,1.941,8.019,3.321,8.274,3.081c0.254-0.24-1.417-1.293-3.726-2.347
			C1641.591,420.121,1640.557,418.098,1643.988,418.117L1643.988,418.117z M1461.737,419.349c0.135-0.005,0.172-0.022,0.235,0
			c0.063,0.022,0.147,0.077,0.147,0.117c0,0.273-0.631,1.556-1.38,2.875c-1.138,2.008-0.906,2.744,1.262,4.43
			c2.563,1.994,2.447,2.018-7.482,4.87c-16.231,4.663-28.419,5.559-34.62,2.494c-1.83-0.904-1.945-1.271-0.587-1.966
			C1424.928,429.296,1457.674,419.497,1461.737,419.349L1461.737,419.349z M1466.108,419.906c0.208-0.005,0.42-0.014,0.646,0
			c1.203,0.076,2.658,0.412,4.283,1.115c4.448,1.921,4.532,2.102,1.467,2.171c-1.801,0.042-3.283,0.52-3.286,1.086
			c0,0.565,1.047,0.752,2.318,0.44c1.27-0.313,3.567,0.285,5.075,1.35c2.688,1.896,2.621,1.977-3.403,1.467
			c-3.387-0.288-7.005-1.354-8.039-2.348C1462.049,422.189,1463.006,419.982,1466.108,419.906L1466.108,419.906z M1686.617,419.906
			c-0.279,0.048-0.35,0.253-0.118,0.616c0.694,1.08,3.017,1.593,3.022,0.675c0-0.246-0.835-0.74-1.849-1.115
			c-0.264-0.097-0.517-0.148-0.704-0.176C1686.828,419.886,1686.71,419.89,1686.617,419.906z M1718.361,420.2
			c-0.196,0.085,1.131,0.776,3.844,2.083c3.265,1.574,7.052,2.856,8.361,2.846s-0.341-0.978-3.609-2.142
			c-4.974-1.773-7.699-2.68-8.42-2.787C1718.447,420.186,1718.389,420.187,1718.361,420.2L1718.361,420.2z M1596.548,420.728
			c6.161,0.057,7.541,0.488,10.709,3.403c3.71,3.416,4.779,5.92,2.112,4.871c-0.816-0.321-2.536-0.956-3.843-1.379
			c-2.256-0.73-2.253-0.675-0.146,0.616c1.795,1.1,1.881,1.554,0.557,2.348c-2.453,1.469-7.024,1.171-14.083-0.851l-6.308-1.789
			l3.256-2.024c1.802-1.117,4.428-1.804,5.839-1.555c1.514,0.268,1.017-0.27-1.262-1.29c-2.123-0.951-3.844-1.876-3.843-2.054
			C1589.537,420.843,1592.662,420.691,1596.548,420.728L1596.548,420.728z M1426.971,420.903c-0.655-0.002-1.978,0.484-2.963,1.085
			c-0.986,0.602-1.242,1.113-0.587,1.115c0.654,0.002,1.978-0.513,2.963-1.115C1427.369,421.387,1427.625,420.906,1426.971,420.903z
			 M1491.31,421.285c3.425,0.021,4.872,0.875,2.758,2.142c-1.16,0.695-0.781,1.011,1.35,1.056c2.919,0.062,2.931,0.074,0.586,1.789
			c-2.821,2.065-12.52,1.612-15.461-0.733c-2.468-1.968-0.685-3.005,6.778-3.961C1488.846,421.383,1490.169,421.278,1491.31,421.285
			z M1691.341,422.195c-0.398,0.056-0.673,0.276-0.676,0.616c0,0.604,0.808,1.112,1.79,1.115s1.818-0.195,1.819-0.44
			c0-0.246-0.809-0.753-1.789-1.115c-0.245-0.09-0.491-0.153-0.704-0.176C1691.62,422.178,1691.473,422.176,1691.341,422.195z
			 M1419.225,423.192c-0.982-0.003-3.371,0.675-5.34,1.526c-1.969,0.851-2.802,1.581-1.818,1.584c0.982,0.003,3.4-0.704,5.369-1.555
			c1.722-0.745,2.589-1.378,2.113-1.525C1419.48,423.201,1419.348,423.193,1419.225,423.192L1419.225,423.192z M1629.964,423.398
			c0.239,0.015,0.483,0.061,0.734,0.088c3.005,0.329,7.724,2.441,15.93,6.865c4.246,2.288,9.464,5.002,11.677,6.044
			c4.381,2.061,3.827,2.984-2.728,4.518c-6.211,1.453-11.428,0.046-26.61-7.306l-14.641-7.1l4.578-0.733
			c3.245-0.541,5.754-0.156,8.948,1.32c2.45,1.131,4.487,1.677,4.489,1.232c0-0.446-1.461-1.483-3.256-2.288
			c-3.048-1.367-3.135-1.523-0.91-2.318c0.347-0.124,0.698-0.251,1.115-0.293C1629.497,423.406,1629.725,423.383,1629.964,423.398
			L1629.964,423.398z M1458.041,424.395c-0.403,0.003-1.064,0.1-2.054,0.322c-3.649,0.821-14.165,5.124-12.41,5.076
			c0.654-0.018,4.014-0.928,7.422-1.965c4.933-1.501,8.244-3.16,7.364-3.404C1458.29,424.404,1458.175,424.394,1458.041,424.395
			L1458.041,424.395z M1734.938,425.216c-1.735,0.01-1.798,0.133-0.264,1.085c2.324,1.443,3.945,1.469,3.021,0.029
			C1737.294,425.705,1736.044,425.21,1734.938,425.216L1734.938,425.216z M1651.821,425.334c-0.26,0.064-0.409,0.303-0.411,0.675
			c0,0.661,0.49,1.23,1.145,1.232s1.23-0.282,1.232-0.557c0-0.276-0.579-0.786-1.232-1.174c-0.163-0.096-0.298-0.153-0.441-0.176
			C1652.009,425.316,1651.908,425.312,1651.821,425.334z M1499.144,426.448l2.876,2.641c2.208,1.993,2.553,2.862,1.408,3.638
			c-1.016,0.688-0.635,0.864,1.145,0.499c3.036-0.623,6.188,2.026,3.667,3.081c-3.306,1.382-13.061-0.156-15.432-2.435l-2.377-2.288
			l4.313-2.552L1499.144,426.448L1499.144,426.448z M1563.806,426.947c0.94,0.003,3.178,0.603,5.017,1.32l3.345,1.29l-2.963,0.91
			c-2.562,0.818-2.418,0.939,0.909,0.499c2.793-0.369,3.85-0.094,3.844,1.056c-0.014,2.678-8.023,3.545-13.907,1.496
			c-6.105-2.127-4.873-3.793,2.582-3.433c1.309,0.064,1.726-0.171,0.909-0.498C1561.511,428.774,1561.705,426.941,1563.806,426.947
			L1563.806,426.947z M1701.639,427.387c-0.83,0.115,0.104,0.684,3.286,2.142c2.8,1.282,2.816,1.26,0.646-0.411
			c-1.266-0.974-2.823-1.729-3.462-1.731C1701.919,427.387,1701.757,427.371,1701.639,427.387z M1677.727,427.681
			c-0.12,0.005-0.146,0.039-0.147,0.117c0,0.313,1.07,1.118,2.377,1.79c1.306,0.672,2.375,0.928,2.377,0.616
			c0-0.312-1.071-1.117-2.377-1.789C1678.978,427.91,1678.09,427.663,1677.727,427.681L1677.727,427.681z M1634.072,428.825
			c-0.193-0.011-0.351,0.033-0.44,0.117c-0.751,0.71,2.28,2.751,4.049,2.728c0.655-0.008,0.171-0.817-1.085-1.731
			C1635.653,429.255,1634.654,428.858,1634.072,428.825z M1614.121,429.06c0.723,0.048,1.815,0.49,3.668,1.32
			c9.339,4.184,24.002,11.584,23.999,12.146c-0.012,2.393-11.267,3.467-17.75,1.673c-2.212-0.613-7.832-3.3-12.468-5.985
			c-8.348-4.834-8.43-4.966-4.548-5.311c2.59-0.23,5.688,0.676,9.124,2.612c7.189,4.049,8.43,3.679,1.554-0.47
			c-3.657-2.207-5.361-3.928-4.929-4.987C1613.054,429.368,1613.399,429.012,1614.121,429.06L1614.121,429.06z M1577.419,429.559
			c0.426-0.003,0.931,0.008,1.496,0.029c0.753,0.028,1.629,0.103,2.582,0.176c6.308,0.477,13.768,3.419,12.264,4.841
			c-0.337,0.319-3.62-0.278-7.335-1.32c-3.715-1.042-7.01-1.627-7.335-1.32c-0.324,0.307,1.732,1.079,4.577,1.79
			c8.73,2.181,9.307,2.476,9.301,3.726c-0.011,1.589-16.351,0.479-18.132-1.233c-0.941-0.904-0.737-1.502,0.705-2.024
			c2.338-0.846,2.621-3.377,0.498-4.342C1575.581,429.672,1576.143,429.565,1577.419,429.559L1577.419,429.559z M1471.331,429.675
			c0.495-0.008,0.916-0.043,1.349,0c0.434,0.043,0.883,0.177,1.291,0.264c4.141,0.893,4.103,0.949-4.782,3.55
			c-4.911,1.438-8.404,2.751-7.746,2.963c0.658,0.211,5.105-0.781,9.799-2.23c7.968-2.459,8.505-2.511,9.007-0.646
			c0.444,1.651-0.995,2.397-8.508,4.254c-14.644,3.622-17.928,3.743-25.818,0.734c-3.463-1.321-3.11-1.487,10.21-5.428
			C1464.185,430.755,1468.362,429.721,1471.331,429.675L1471.331,429.675z M1440.554,430.086c-0.413-0.017-0.919,0.072-1.349,0.235
			c-0.952,0.359-0.683,0.616,0.704,0.675c1.254,0.053,2.007-0.238,1.614-0.616C1441.326,430.19,1440.969,430.104,1440.554,430.086z
			 M1485.354,430.086c2.333,0.007,2.997,0.501,2.494,1.731c-0.704,1.724,1.403,3.28,8.098,5.985c3.501,1.415,3.457,1.411-1.702,0.91
			c-2.888-0.282-6.587-1.461-8.274-2.67C1481.608,432.916,1481.322,430.075,1485.354,430.086L1485.354,430.086z M1684.447,430.761
			c-0.155,0.004-0.29,0.089-0.382,0.177c-0.368,0.348,0.295,0.979,1.466,1.408c1.694,0.621,1.807,0.45,0.646-0.675
			C1685.574,431.088,1684.908,430.749,1684.447,430.761z M1434.452,431.172c-1.107-0.048-2.379,0.404-2.787,1.026
			c-0.852,1.303-0.816,1.295,2.377,0C1435.986,431.41,1436.092,431.242,1434.452,431.172L1434.452,431.172z M1715.105,432.434
			c-0.279,0.048-0.321,0.253-0.088,0.616c0.693,1.08,2.958,1.622,2.963,0.704c0-0.246-0.804-0.74-1.819-1.115
			c-0.264-0.097-0.517-0.178-0.704-0.205C1715.317,432.413,1715.198,432.418,1715.105,432.434L1715.105,432.434z M1597.634,433.372
			c1.426,0.054,4.677,1.823,11.999,5.985c4.896,2.783,10.748,5.653,13.026,6.424l4.195,1.438l-3.55,1.878
			c-5.026,2.659-12.3,1.555-21.682-3.315c-10.774-5.594-10.527-5.404-7.687-6.395c1.803-0.629,4.082-0.026,7.951,2.053
			c2.999,1.611,5.688,2.688,5.985,2.406s-2.13-1.928-5.398-3.638c-3.922-2.053-5.875-3.824-5.868-5.251
			C1596.616,433.938,1596.778,433.34,1597.634,433.372z M1563.953,436.042c0.223-0.042,0.572,0.006,1.026,0.058
			c0.606,0.07,1.43,0.241,2.523,0.441c5.441,0.99,11.186,3.687,11.178,5.251c0,0.638-1.434,0.802-3.286,0.411
			c-2.518-0.532-2.867-0.378-1.497,0.557c1.367,0.933,0.565,1.215-3.549,1.203c-2.946-0.009-6.053-0.467-6.923-0.998
			c-1.268-0.772-1.232-1.08,0.323-1.643c1.589-0.575,1.696-1.201,0.586-3.198C1563.601,436.804,1563.284,436.169,1563.953,436.042
			L1563.953,436.042z M1527.983,436.365c-0.739,0.056-2.122,0.5-3.55,1.203c-1.903,0.938-5.625,1.697-8.245,1.702
			c-3.433,0.007-4.291,0.314-3.021,1.085c1.39,0.845,0.846,1.441-2.641,2.816c-2.428,0.957-5.765,1.766-7.422,1.76
			s-4.112,1.015-5.428,2.259s-3.702,2.264-5.34,2.259c-1.637-0.005-2.96,0.461-2.963,1.085c0,0.624,0.775,1.17,1.79,1.174
			c1.014,0.003,3.564,0.775,5.603,1.789l3.697,1.849l-2.905,2.142c-1.592,1.157-2.293,2.125-1.554,2.142
			c0.738,0.016,1.933-0.687,2.67-1.526c0.737-0.839,2.984-1.535,5.017-1.584c2.033-0.049,6.239-0.947,9.33-1.994l5.603-1.937
			l5.281,3.198l5.251,3.198l-3.873,1.525c-2.132,0.823-3.871,1.714-3.873,2.024c0,0.981,1.669,0.636,5.281-1.144
			c1.925-0.949,4.212-1.482,5.046-1.174c1.908,0.705,12.345-2.565,12.352-3.873c0-0.533-1.891-0.252-4.166,0.646
			c-2.275,0.897-5.318,1.647-6.778,1.643c-2.484-0.008-11.779-5.28-12.645-7.158c-0.216-0.469-1.319-0.848-2.435-0.851
			c-1.116-0.003-4.063-1.014-6.543-2.229l-4.488-2.23l5.016-2.435l5.105-2.435l5.78,2.582c3.166,1.426,5.694,2.982,5.692,3.403
			c0,0.422-1.164,1.352-2.641,2.025c-1.789,0.815-2.088,1.206-0.85,1.261c1.02,0.045,2.825-0.554,4.019-1.379
			c2.048-1.417,1.976-1.69-1.145-4.049c-1.818-1.374-4.584-2.786-6.161-3.168c-2.666-0.647-2.484-0.895,2.201-2.876
			c2.771-1.171,4.697-2.356,4.371-2.669c-0.041-0.04-0.104-0.051-0.176-0.059C1528.175,436.357,1528.106,436.356,1527.983,436.365
			L1527.983,436.365z M1457.453,436.453c-0.427,0.011-0.858,0.05-1.349,0.117c-1.966,0.268-3.608,0.668-3.61,0.909
			c0,0.242,1.645,0.493,3.61,0.499c1.963,0.006,3.547-0.452,3.55-0.968c0-0.291-0.555-0.495-1.35-0.557
			C1458.04,436.433,1457.774,436.445,1457.453,436.453L1457.453,436.453z M1482.421,437.333c0.491-0.038,0.897,0.007,1.232,0.059
			c0.801,0.124,1.209,0.506,1.672,1.115c0.75,0.987,2.92,1.862,4.812,1.907l3.403,0.059l-2.963,1.174
			c-4.53,1.774-13.357,4.017-16.429,4.166c-1.506,0.072-4.379-0.684-6.367-1.673c-1.987-0.988-3.354-2.003-3.021-2.318
			c0.333-0.315,4.836-1.645,9.946-2.876C1478.647,437.997,1480.947,437.448,1482.421,437.333z M1546.379,438.242
			c-0.655-0.002-0.841,0.489-0.44,1.115c0.402,0.625,1.252,1.172,1.907,1.174c0.655,0.003,0.871-0.548,0.47-1.174
			C1547.914,438.732,1547.034,438.244,1546.379,438.242L1546.379,438.242z M1624.595,438.976c-0.279,0.047-0.321,0.253-0.088,0.616
			c0.693,1.08,3.017,1.594,3.021,0.675c0-0.245-0.863-0.71-1.878-1.085c-0.264-0.097-0.517-0.178-0.704-0.205
			C1624.807,438.956,1624.689,438.96,1624.595,438.976L1624.595,438.976z M1580.764,439.621c0.181,0,0.389,0.011,0.616,0.03
			c2.732,0.218,8.55,1.877,11.383,3.52c2.165,1.255,7.446,3.976,11.794,6.044l7.892,3.784l-4.108,1.145
			c-5.741,1.599-10.38,0.698-20.772-4.049c-7.051-3.221-8.661-4.427-7.628-5.603c1.23-1.402,3.707-1.098,6.425,0.704
			c1.735,1.149,5.396,2.268,5.399,1.672c0-0.282-2.69-1.811-5.956-3.403c-3.265-1.592-5.899-3.191-5.897-3.52
			C1579.913,439.711,1580.219,439.624,1580.764,439.621L1580.764,439.621z M1483.682,439.827c-0.585,0.001-1.381,0.155-2.317,0.44
			c-1.803,0.55-4.352,1.254-5.663,1.526c-3.235,0.67,2.521,0.672,6.25,0c1.474-0.267,2.696-0.978,2.699-1.526
			C1484.65,439.982,1484.267,439.826,1483.682,439.827z M1570.231,440.707c-0.413-0.018-0.831,0.013-1.261,0.176
			c-0.952,0.359-0.683,0.704,0.704,0.763c1.255,0.053,1.919-0.238,1.526-0.616C1571.003,440.841,1570.644,440.724,1570.231,440.707
			L1570.231,440.707z M1610.014,444.462c-0.26,0.081-0.409,0.362-0.411,0.734c0,0.661,0.548,1.171,1.203,1.174
			c0.655,0.002,1.172-0.223,1.173-0.499c0-0.276-0.491-0.844-1.144-1.232c-0.163-0.097-0.386-0.153-0.528-0.177
			C1610.201,444.445,1610.101,444.435,1610.014,444.462z M1563.982,446.663c-0.15,0.194,0.647,1.304,2.113,2.817
			c3.705,3.824,4.216,4.094,4.224,2.582c0.01-1.053-3.157-3.834-5.955-5.281c-0.123-0.064-0.195-0.106-0.264-0.117
			C1564.039,446.652,1564.004,446.634,1563.982,446.663z M1503.105,446.956c0.251-0.003,0.497,0.028,0.763,0.059
			c1.274,0.147,2.734,0.665,4.87,1.554c6.001,2.499,6.635,4.331,1.907,5.575c-4.901,1.289-8.203,1.051-12.087-0.881
			c-3.594-1.787-3.642-1.943-1.409-3.52C1499.823,447.855,1501.348,446.98,1503.105,446.956L1503.105,446.956z M1548.198,447.719
			c-0.327,0.038-0.526,0.274-0.528,0.646c0,0.692-2.647,1.24-6.249,1.232l-6.22-0.029l3.844,2.288
			c4.303,2.521,5.562,2.787,4.488,1.115c-0.393-0.612,1.03-1.758,3.169-2.582c2.551-0.983,3.41-1.815,2.464-2.377
			c-0.198-0.117-0.414-0.193-0.586-0.235C1548.45,447.746,1548.307,447.706,1548.198,447.719L1548.198,447.719z M1486.998,449.42
			c-0.654-0.002-1.229,0.525-1.232,1.174c0,0.65-2.28,2.06-5.047,3.169l-5.017,1.995l4.049,0.821
			c5.051,0.979,7.566,2.906,6.073,4.606c-0.783,0.891,0.212,1.271,3.285,1.32c2.4,0.039,5.383,0.455,6.689,0.939
			c1.751,0.648,1.674,0.478-0.322-0.675c-1.489-0.86-2.304-1.997-1.789-2.523c0.514-0.526-0.22-0.658-1.673-0.322
			c-1.643,0.38-3.638-0.21-5.251-1.555c-1.426-1.188-3.443-2.216-4.488-2.229c-1.128-0.015-0.307-0.983,1.995-2.377
			C1488.062,451.466,1489.376,449.428,1486.998,449.42L1486.998,449.42z M1575.923,449.802c-0.166,0.014-0.293,0.064-0.381,0.147
			c-0.205,0.194,0.631,0.995,1.907,1.761c1.276,0.766,2.374,0.943,2.377,0.381c0-0.78-2.07-2.056-3.374-2.288
			C1576.265,449.769,1576.068,449.79,1575.923,449.802L1575.923,449.802z M1581.967,453.146c-0.155,0.004-0.319,0.089-0.411,0.177
			c-0.368,0.348,0.324,0.979,1.496,1.408c1.693,0.621,1.807,0.45,0.646-0.675C1583.096,453.472,1582.43,453.135,1581.967,453.146z
			 M1574.632,453.235c-0.093-0.005-0.157,0.013-0.205,0.058c-0.371,0.351,0.715,1.723,2.435,3.022
			c1.719,1.299,2.771,2.873,2.347,3.52c-0.424,0.648,0.065,1.2,1.085,1.203c1.021,0.004,1.875-0.402,1.878-0.91
			C1582.182,458.817,1576.035,453.313,1574.632,453.235L1574.632,453.235z M1547.318,454.32c-0.222,0.014-0.375,0.055-0.441,0.117
			c-0.262,0.248,1.977,2.766,4.929,5.604c2.953,2.837,5.6,4.825,5.897,4.371c0.298-0.454-1.059-2.269-2.992-4.049
			c-2.226-2.049-3.001-3.505-2.172-3.99c0.744-0.434-0.107-1.17-1.936-1.614C1549.274,454.437,1547.981,454.277,1547.318,454.32
			L1547.318,454.32z M1505.422,457.459c-0.405,0.117,0.445,1.261,2.934,3.316c3.99,3.294,4.074,3.407,1.467,4.108
			c-1.475,0.396-2.696,1.146-2.699,1.643c0,0.497,1.663,0.303,3.667-0.411c3.164-1.127,4.273-0.948,8.596,1.438
			c3.292,1.815,4.452,2.163,3.404,0.939c-0.873-1.019-2.685-2.174-4.019-2.582c-1.919-0.587-2.068-1.008-0.763-1.789
			c1.221-0.73,0.954-0.979-1.085-0.997c-1.516-0.014-4.551-1.338-6.689-2.905C1507.52,458.228,1505.828,457.342,1505.422,457.459
			L1505.422,457.459z M1482.04,463.151c-0.413-0.018-0.86,0.013-1.291,0.176c-0.951,0.359-0.682,0.675,0.704,0.734
			c1.255,0.053,1.949-0.238,1.555-0.616C1482.811,463.255,1482.453,463.169,1482.04,463.151L1482.04,463.151z M1499.965,465.351
			c-0.654-0.002-1.141,0.381-1.144,0.91c0,0.529-1.252,1.528-2.729,2.2c-1.477,0.673-2.151,1.23-1.496,1.233
			c0.655,0.002,2.396-0.56,3.873-1.233C1501.212,467.211,1502.109,465.358,1499.965,465.351L1499.965,465.351z M1591.209,466.789
			c-0.461,0.067-0.926,0.351-1.291,0.91c-0.361,0.552,0.362,1.297,1.614,1.614c1.593,0.402,2.11,0.105,1.672-0.998
			c-0.355-0.894-0.918-1.418-1.525-1.525C1591.526,466.762,1591.362,466.766,1591.209,466.789L1591.209,466.789z M1528.336,470.045
			c-4.163-0.129-5.404,1.733-1.614,2.435c1.608,0.299,2.686,0.13,2.377-0.352c-0.31-0.481,0.085-1.095,0.909-1.409
			C1530.833,470.406,1530.097,470.1,1528.336,470.045L1528.336,470.045z M1594.787,471.277c-0.613-0.002-0.464,0.732,0.323,1.644
			c0.786,0.911,1.161,2.18,0.762,2.786c-0.397,0.608,0.549,2.428,2.113,4.049c2.303,2.388,2.951,2.629,3.521,1.232
			c0.387-0.949,0.204-1.729-0.441-1.731c-0.645-0.002-2.058-1.803-3.139-3.99C1596.845,473.08,1595.401,471.28,1594.787,471.277
			L1594.787,471.277z M1571.287,475.855c-0.413-0.018-0.919,0.101-1.35,0.264c-0.951,0.359-0.683,0.616,0.704,0.675
			c1.255,0.053,2.007-0.238,1.614-0.616C1572.059,475.988,1571.701,475.872,1571.287,475.855L1571.287,475.855z M1586.719,475.913
			c-0.413-0.018-0.86,0.072-1.29,0.235c-0.952,0.359-0.683,0.616,0.704,0.675c1.254,0.053,1.948-0.208,1.554-0.586
			C1587.491,476.047,1587.133,475.931,1586.719,475.913L1586.719,475.913z M1535.964,476.383c-0.923,0.02-1.718,0.405-1.995,1.085
			c-0.715,1.751,3.434,2.257,4.547,0.557c0.361-0.552-0.327-1.266-1.584-1.584C1536.603,476.358,1536.271,476.376,1535.964,476.383
			L1535.964,476.383z M1545.616,476.969c-0.217,0.027-0.431,0.095-0.646,0.176c-0.952,0.359-0.683,0.675,0.704,0.734
			c1.255,0.053,1.919-0.238,1.525-0.616c-0.196-0.189-0.525-0.276-0.939-0.293C1546.054,476.961,1545.833,476.943,1545.616,476.969z
			 M1543.445,481.839c-0.26,0.048-0.291,0.253-0.058,0.616c0.693,1.08,2.959,1.623,2.963,0.704c0-0.246-0.864-0.74-1.878-1.115
			c-0.264-0.098-0.517-0.149-0.704-0.177C1543.627,481.848,1543.532,481.824,1543.445,481.839L1543.445,481.839z M1611.892,482.808
			c0.095-0.02,0.216-0.02,0.352,0c1.812,0.264,7.143,4.14,17.192,12.204c8.425,6.761,17.516,13.293,20.185,14.523
			c5.134,2.367,6.285,3.942,2.816,3.931c-4.666-0.014-10.257-2.447-16.107-6.983l-6.161-4.812l4.723,4.577
			c6.028,5.762,9.384,7.501,16.048,8.332l5.34,0.616l-3.609,1.907c-4.522,2.397-5.728,2.435-10.415,0.147
			c-2.091-1.021-10.2-6.802-17.955-12.82c-12.676-9.837-13.769-11-11.208-11.618c1.75-0.422,3.597,0.008,4.871,1.056
			c1.141,0.939,2.139,1.267,2.142,0.792c0-0.475-1.372-1.82-2.963-3.022c-1.591-1.202-3.644-3.715-4.607-5.574
			C1611.504,484.068,1611.22,482.949,1611.892,482.808L1611.892,482.808z M1601.359,483.864c-0.143,0.026-0.159,0.653-0.205,1.849
			c-0.071,1.805-0.958,2.597-3.345,2.934c-2.635,0.373-2.446,0.468,1.144,0.616c2.455,0.101,4.415-0.207,4.372-0.675
			c-0.044-0.469-0.5-1.86-1.056-3.111C1601.781,484.38,1601.502,483.837,1601.359,483.864L1601.359,483.864z M1551.396,488.206
			c-1.086,0.007-4.154,5.791-3.433,6.484c0.271,0.261,1.349-1.065,2.406-2.992S1551.904,488.203,1551.396,488.206L1551.396,488.206z
			 M1569.645,493.105c0.08-0.022,0.147,0.025,0.205,0.059c0.47,0.271,4.745,1.643,9.565,3.021c5.923,1.695,8.389,2.862,7.569,3.638
			c-0.82,0.775-2.093,0.697-3.902-0.234c-2.244-1.155-2.853-1.093-3.814,0.528c-0.882,1.486-2.114,1.768-5.222,1.203
			c-2.713-0.495-3.986-0.269-3.99,0.616c0,0.76-1.007,1.079-2.377,0.734c-2.857-0.722-3.551,0.17-6.278,8.244
			c-2.764,8.183-2.701,9.826,0.498,11.413c1.47,0.729,4.106,2.856,5.897,4.694c3.428,3.519,4.423,5.555,1.614,3.315
			c-0.91-0.725-2.096-1.233-2.699-1.056c-0.603,0.176-2.891-1.281-5.017-3.315c-5.668-5.426-9.282-4.856-11.472,1.907
			c-0.902,2.786-5.083,7.604-6.836,7.834c-0.491,0.064-0.918-1.22-0.909-2.817c0.01-2.022,0.463-2.62,1.496-2.024
			c1.133,0.654,1.161,0.41,0-0.969c-1.255-1.488-1.175-2.138,0.411-3.638c1.056-0.999,2.355-1.762,2.963-1.76
			c0.608,0.003,1.17-0.533,1.174-1.173c0-0.663-1.57-0.439-3.609,0.557c-2.479,1.211-3.541,2.62-3.55,4.518
			c-0.015,3.015-1.856,4.677-3.052,2.817c-1.758-2.737,2.506-8.039,8.86-11.06c7.725-3.673,8.799-5.099,11.677-16.048
			c1.336-5.084,2.373-7.542,2.612-6.015c0.603,3.859,3.714,3.142,5.721-1.379C1568.037,494.784,1569.085,493.263,1569.645,493.105
			L1569.645,493.105z M1624.448,497.506c-0.019,0.011-0.041,0.042-0.058,0.059c-0.284,0.276,0.91,1.453,2.64,2.64l3.14,2.142
			l-2.641-2.64c-1.266-1.282-2.513-2.18-2.992-2.201C1624.502,497.506,1624.468,497.495,1624.448,497.506L1624.448,497.506z
			 M1612.772,498.709c0.086-0.003,0.189,0.003,0.293,0.029c1.462,0.373,4.723,2.864,12.176,8.831
			c7.112,5.694,13.513,10.404,14.229,10.415c0.774,0.012,0.698,0.367-0.205,0.91c-0.836,0.502-3.033,0.682-4.929,0.411
			c-3.483-0.499-4.246-0.996-15.021-10.416c-3.292-2.878-2.117-1.567,2.552,2.905c5.65,5.409,9.822,8.427,12.498,9.036l3.99,0.939
			l-3.52,0.675c-5.984,1.161-10.083-1.06-20.097-11.06c-5.279-5.272-9.813-10.145-10.063-10.826c-0.426-1.161,0.12-1.1,5.427,0.997
			c0.765,0.302,1.568-0.527,1.79-1.878c0.088-0.539,0.266-0.867,0.645-0.939C1612.608,498.725,1612.687,498.712,1612.772,498.709
			L1612.772,498.709z M1593.174,499.854c1.458,0.001,5.908,3.494,11.794,9.358c4.467,4.451,7.387,7.031,6.543,5.781
			c-0.845-1.252-3.936-4.669-6.865-7.628c-2.929-2.96-4.903-5.775-4.401-6.249s3.65,1.962,6.982,5.398
			c3.332,3.437,8.655,8.878,11.794,12.117c4.685,4.835,5.271,5.973,3.55,6.395c-1.153,0.283-2.191,0.603-2.376,0.675
			c-0.186,0.073-2.35-0.647-4.753-1.614c-2.403-0.966-5.149-2.682-6.161-3.755c-4.606-4.883-16.638-19.277-16.635-19.92
			C1592.646,500.029,1592.837,499.853,1593.174,499.854L1593.174,499.854z M1580.412,501.672l2.641,0.411
			c1.586,0.238,5.892,4.346,11.089,10.591c6.161,7.402,9.676,10.659,12.675,11.648l4.166,1.35l-3.784,0.059
			c-2.098,0.028-5.137-0.555-6.748-1.262c-2.699-1.183-10.503-9.794-17.222-19.012L1580.412,501.672L1580.412,501.672z
			 M1589.742,501.996c1.063,0.14,3.435,2.491,7.627,7.569c3.488,4.223,6.905,8.234,7.599,8.86c4.883,4.404,4.818,6.262-0.147,3.609
			c-2.914-1.557-15.735-16.935-15.725-18.865C1589.096,502.342,1589.258,501.932,1589.742,501.996L1589.742,501.996z
			 M1572.637,503.051c0.856-0.134,4.504,4.064,8.831,10.269c3.83,5.493,6.784,8.419,10.298,10.092l4.929,2.348l-4.372-0.029
			c-3.262-0.01-5.271-0.856-7.892-3.375c-3.054-2.934-12.009-17.144-11.999-19.011
			C1572.432,503.141,1572.515,503.071,1572.637,503.051z M1569.41,504.02c0.04-0.015,0.068-0.008,0.117,0
			c0.656,0.101,2.252,2.122,3.844,5.281c1.439,2.858,2.045,4.885,1.379,4.489c-1.846-1.097-1.461,0.947,0.646,3.432
			c1.672,1.973,1.8,2.005,1.203,0.176c-0.416-1.272-0.193-1.724,0.586-1.261c0.69,0.41,1.029,1.346,0.704,2.142
			c-0.324,0.796-0.026,2.055,0.705,2.758c0.966,0.929,0.962,1.293,0,1.29c-0.728-0.002-2.596-1.521-4.167-3.315
			c-1.57-1.794-3.563-4.956-4.43-7.07c-0.867-2.114-2.403-4.744-3.374-5.839c-0.97-1.095-1.283-1.967-0.763-1.965
			c0.521,0.002,1.703,0.87,2.641,1.965c1.625,1.896,1.641,1.894,1.027,0C1569.101,504.791,1569.133,504.123,1569.41,504.02
			L1569.41,504.02z M1579.12,504.401c0.638-0.014,1.312,0.45,1.731,1.174c0.561,0.964,3.528,4.79,6.572,8.45
			c3.044,3.659,6.042,7.257,6.66,8.039c1.737,2.198-0.805,1.74-4.049-0.733c-4.574-3.488-13.047-15.82-11.501-16.723
			C1578.719,504.499,1578.908,504.406,1579.12,504.401L1579.12,504.401z M1570.26,507.922c-0.042,0.004-0.084,0.02-0.118,0.029
			c-0.088,0.024-0.116,0.079-0.118,0.235c0,0.624,0.776,2.159,1.731,3.374c0.956,1.214,1.728,1.68,1.731,1.056
			c0-0.624-0.775-2.101-1.731-3.316c-0.537-0.683-1.029-1.192-1.35-1.35C1570.354,507.925,1570.303,507.917,1570.26,507.922
			L1570.26,507.922z M1613.359,517.897c-0.476-0.001,0.512,1.006,2.171,2.259c1.659,1.253,3.368,2.287,3.843,2.288
			c0.477,0.001-0.454-1.006-2.112-2.259C1615.603,518.932,1613.835,517.898,1613.359,517.897L1613.359,517.897z"/>
	</g>
</g>
</svg>
